<svg xmlns="http://www.w3.org/2000/svg" viewBox="-45.05 0 246 246">
<!-- SVG created with Arrow, by QuiverAI (https://quiver.ai) -->
  <radialGradient id="SVGID_1_" cx="77.79" cy="115.2" r="62.35" gradientUnits="userSpaceOnUse">
    <stop stop-color="#FFDBAC" stop-opacity="0.5" offset="0"/>
    <stop stop-color="#FFDBAC" stop-opacity="0" offset="1"/>
  </radialGradient>
  <path fill="url(#SVGID_1_)" d="m135 139c-11 27-57 39-57 39s-47-12-57-39c-10.7-28.4-9.8-51.9 14-69 19-13.4 43-14.1 43-14.1s25 0.6 42 14.1c24 20 23.9 46.4 15 69z"/>
  <path fill="#77787B" d="m36 189.9c-5-2.9-12.6-9.2-12.4-16.9l18.4-22c12-4 36-5 36-5l32 3c9 3 19 7 19 13 5.6 4.8 1.9 22.7-6 27-14 7.5-79 5.5-87 0.9z"/>
  <path fill="#696A6C" d="m23.6 178.1c7.4 4.9 16.4 3.9 26.4 1.3 12-3 23-6.4 34-4 17 3.6 25 8.4 38 6.6 2.6-0.4 7-1.7 6-1 2.2-1.5 1-1 1-1l-1 2 1-1-1 1-2.9 5h-90s-10.1-7-11.5-8.9z"/>
  <path fill="#8A898A" d="m43 151c-7 1-20 8-19.5 18 9.5 4 20.5 6 23.5 5 9-3 17-7 28-6s23 8.4 35 10c9 0 16-1.6 19-3l1-2-4-14.1c-5.5-4-10.6-7-18-8.9-18-4.8-46-5-65 1z"/>
  <path fill="#77787B" d="m142 202c6 6 0 25.6-30 29.4-14 1.6-23 1-49 0.3-22-0.4-32-1-39-4.1-12-5-16-14.6-9-24.6l127-1z"/>
  <path fill="#696A6C" d="m14 213.7v2.4c10 5.1 24-1.1 38-5.1 10-1.5 19-3 22-2.4 18 3.1 22 2.4 40 2.8 10 0.3 21 0 27-3.8l3-3-3-2.6-126 1c-4 5-1 10.7-1 10.7z"/>
  <path fill="#696A6C" d="m141 214c-7 3-13 4-23 2.5-9-1.1-22-5.5-22-5.5l4-1c15 1 33 0.3 41-2 3-1 0-2.4 0-2.4l2.6-1.9c1.4 4.3-2.6 7.1-2.6 10.3z"/>
  <path fill="#8E8D89" d="m32 145c-6-9 7-15 15-17.2l26-3.7c10 0 28 0.5 36 1.5 7 5.4 15 8.4 13 17.4l-31 9h-29l-19-1-11-6z"/>
  <path fill="#817F7C" d="m32 141v3c6 9 24 10.4 44 10.1 20-0.4 43-3.6 45-11.1v-7l-89 5z"/>
  <path fill="#6F6E6C" d="m107 149c4 1 19 4.3 21 12-2 4-9 3.5-18 1.8s-15-2.8-21-2.8l-5-7 23-4z"/>
  <path fill="#898884" d="m45.6 128c-5.6 2-14.6 6-13.6 13 8 4 27 4 52 2.6 12-0.6 32-0.9 38-2.6v-6l-15-9.5-21-0.4h-24l-16.4 2.9z"/>
  <path fill="#B5AEAB" d="m48 131c-10 4.8-10 11 9 11.4 14 0 23-3.4 33-4.2 10-1.8 29-2.8 31-2.2h1l-1-2-9-8.5-25-1.5-26 1.1-13 5.9z"/>
  <path fill="#918A82" d="m44 123.6c-5-4.6-6-13.6 0-17.7 6-4.9 10-4.9 15-4.9l33 0.5c14 1.5 24 9.5 20 19.5l-18 5.8-35 2.2-15-5.4z"/>
  <path fill="#B9AEA2" d="m83 118.5c-9 2-19 7.5-38 5.6 5 4.4 13 5.9 27 5.9s31-1 37-5.4l1-2.6 1-1-18-4-10 1.5z"/>
  <path fill="#ACA49B" d="m50 98c-5-3.3-5-6.9 4-11.4 5-2.6 14-4.2 21-4.6l19 2c7 0 13 5.1 13 7l-10 10.9c-4 3.1-20 4.1-30 2.5l-17-6.4z"/>
  <path fill="#AFABA3" d="m47 95c8.5-3.5 17.1-6 28-6 9 0 19-2 26-9-4-2-16-2-21-2l-21 6c-5 1-13 6-12 11z"/>
  <path fill="#9C9387" d="m63 84.5c-6-0.5-13-1.5-15-8.5l11-10 20 1 16 11-13 6-19 0.5z"/>
  <path fill="#72685C" d="m59 84c7 1 20 0.5 33-4 5-1.6 9-4.4 8-9.4l-12-6.6-19 1-19 6-2.4 2c-0.6 5.4 2.4 10 11.4 11z"/>
  <path fill="#817C75" d="m46 57c0-4.1 10-9 17-10l20-1 10 2c7 2 12 5.5 11 11l-12 5.5-33 0.5-12-5-1-3z"/>
  <path fill="#93928E" d="m45.9 57.3c15.1-0.3 42.1-0.3 48.1-4.3 3-1 3-4 0-5l-11-2-19 0.6c-6 1.4-18 5.4-18.1 10.7z"/>
  <path fill="#817F7C" d="m54.3 40c-0.3-3.8 4.7-6.9 11.7-8l18-1.1c7 1 16 4.2 15 10.1l-29 5-15-4-0.7-2z"/>
  <path fill="#6F6E6C" d="m54.5 40.9c1.5 4.6 11.5 8.1 24.5 8.5 13 0.3 20-1.8 19.7-8.5-1.7 2.2-10.7 3.1-18.7 1.7-8-1.2-21-3.2-25.5-1.7z"/>
  <path fill="#8E8D89" d="m58.2 26.7c-0.2-3 3.8-4.7 8.8-6.9 6-2.9 13-7.1 20-5.8l2 2-4 13-12 2h-11l-3.8-4.3z"/>
  <path fill="#817F7C" d="m58.3 26.9c5.7 1.1 11.7 0.1 17.7-2.1 5-1.9 11-5 11-8.8v-2l-10 1-15 6.7-3.7 3.2v2z"/>
  <path fill="#6F6E6C" d="m62 31.7c2 1.3 10 3.3 16 2.2 8-0.9 15-6 14.4-12.9l-3.4-3-10 10-7 3.7h-10z"/>
  <path fill="#8E8D89" d="m58 27c0 3 8 6 8 6l-1-1 3-1-6-2-4-2z"/>
  <path fill="#817F7C" d="m69 33.4c1 0.6 3 0.6 5 0l-3-2.4-2 2.4z"/>
  <path fill="#ACA49B" d="m53 101c11 3 27 5 41 2 6-2 16-8 13-18l-17 8-23 3-14 5z"/>
  <path fill="#9C9387" d="m54 101.4c9 0.6 13-5.4 21-7.4s14 0 19 8c7-1 16-8 13-17h-8c-4 4-15 7-29 7l-23 2.5c0 3.5 7 6.9 7 6.9z"/>
  <path fill="#918A82" d="m53 101.4c10-1.4 13-2.3 23-3 10-0.5 18 3.1 20 4.1 10-4.1 15-10.5 11-18.5l-8 3-17 6-29 8.4z"/>
  <path fill="#817C75" d="m53.6 65c8.4 1.6 16.4 1 22.4 1l16-1c5-1.6 12-2.3 12.4-7h-18.4l-19 2-10 1-10-3c-1 2 5.7 7 6.6 7z"/>
  <path fill="#6F6E6C" d="m46 57c2 4 9 5.6 16 4.6 7-0.6 15-3.6 24-3.6s14 2 18 0.4c2-4.4-9-8.4-10-10.4l1 2c2 2-2 4-11 5-7 1-26 1.5-38 2z"/>
  <path fill="#848480" d="m110 86c-3 3-10 6-19 7-9 0-10-2-17 0s-13 8-21 8c8 3 26 6 41 2s16-14 16-17z"/>
  <path fill="#AAA7A2" d="m45.5 124c3.5 3 12.5 6 24.5 6 16 0 25-1 34-3.5 9-2.9 11-5.5 8-8-4-3-17-2-22-1.5-10 1.5-14 4-24 6.6-11 1.9-18.4 1.4-20.5 0.4z"/>
  <path fill="#888B61" d="m15.7 205c2.3 0 6.7-2.6 10.3-3v2l3-1 2-1.6 10.5-0.4-0.5-1 1-1h0.5l1.5 1.5 1 0.1 4-1.1 3-0.5-1.1 2-3 0.4-3.9 0.1-1 0.5v1.6l-2.7 0.9-2.3 0.9-6 0.6-3 1c-3 0.6-3 0.5-3 0l-1-1h-2l1 1 0.4 0.6h-0.4v-0.1 0.1h-1l1-0.6-1 0.6 1-0.1v0.5-0.4l-1 0.4 1-0.4h-1 1-1l1 0.4h-1v-0.4h1v0.4-0.4l-1 0.4-0.2-1 1.2-1.6 2-0.4 2.8 1 2.2-1.4 2-0.6 9-1 1-1.5h-1l-3.6-0.5h-0.4l-7 0.5h-1l-1 1.1-2 0.4-2 1h1-1l-1-2-7 2.5h-0.6v0.5h-0.7-0.7 0.7z"/>
  <polygon fill="#919366" points="47.1 204 44 207 43.5 207 43.5 207 44 207 47.1 205.6"/>
  <polygon fill="#919366" points="44 205 47.1 204 47 205.4 44 207 43.5 207 43.5 206 43.5 206"/>
  <polygon fill="#919366" points="45.1 202 48.1 201 47 202.6 45 203"/>
  <polygon fill="#919366" points="48.1 202 51 204 51.6 205 51.1 205.6 48.8 205 48.1 203 48.1 203"/>
  <path fill="#919366" d="m56 200.5h-2l-0.2 1.5 0.2 1 1 0.4 4-2.8-1.9-0.1z"/>
  <path fill="#919366" d="m31 193c-4 1.6-14 5-15.3 11l8.3-2.5v2.5l3-1 2-1 1-1h5l6-0.5 1-1.5 2 1 3 0.5 5-1.5 1.7 1 0.3 0.5h2 3v-4.5l-13-5-5-1.5-10 3.5z"/>
  <path fill="#AA9F7C" d="m28 193c-3-2.5-1.2-6 4.7-4.5s16.3 4.5 16.3 4.5l-8 4-10-2-3-2z"/>
  <path fill="#CECAA6" d="m28.1 188c2.9-0.4 5.9 0 11.9 2 4 1.4 9 3 9 3l-8 4c-5 0-14.6-3-13.1-8.5l0.2-0.5z"/>
  <path fill="#AA9F7C" d="m33 189c4 5.6 9 8.6 14.5 10l12.5 1 14 1.5 11 1 5-0.5 6-1 14-2 6-1.4 6-2.2c2-0.8 6-2.4 2-3.4l-6-1.5-8 1.5-10 2-14 0.5h-13l-12-1-5-1.5h-7l-9-2h-4l-3-1z"/>
  <path fill="#CECAA6" d="m32 188c8 7.4 11 9.4 23 11 5 1.4 9 2 17 1.5 6 0.9 11 2.1 16 1.5 7-2 15-2.5 23-4 4-0.6 13-3 14-6l-7-2-5 2-8 1-9 1-14 0.5h-14l-5-1-6-0.5-5-1h-5l-5-1-6-2h-1l-3-1z"/>
  <path fill="none" stroke="#BEBB9C" stroke-width="0.5" stroke-linecap="round" stroke-linejoin="round" stroke-miterlimit="10" d="m30 188 5 5 2.6 2m1.4-3h4.5l5.9 4m-3.4-3h6 0.7l7.3 6m-7-6c1 0.4 3 1 6 1 4 0 6.3 2 9 4.5m-7-1.5 8 1m0-3c4 0.5 10 5 10.7 5.5m-12.7-5.5h4c10 0.4 14 5.5 16 6.5m-10-6.5c5 0.4 10 4.4 12 5m-9-3c5-1.6 13-2.4 16-2m-14 0h4l11 4m-7-2c3-2 10-2 13-1m-12-0.6c3 0 5-1.4 9-1.9m-5 4.5c4-1 7-0.6 10 0m-19 1.4c3 0.6 5 0.2 10-0.4m3-4.5 5 1.5c3-1 6-1.5 8-1.5l3-1.5 5-1m-14 4 4-0.6 7 0.6m-14 1c2 0.4 4 0 7 0m-8-4 4-1 4 2.5 3-2.5c2-1 5-2 7-2.5l3-0.5 2-1.4c3-1.2 2.6 2.9-3 5.4m-9 2 3-1 5-1h4"/>
  <path fill="#CECAA6" d="m118 190.5c4-0.5 7.8-4 6.6-2.5 0.9-0.6 1.4-0.5-0.6 0l-1 1-1 0.5-2 2.5 4 1h1l-2 1-1-1h-3l-1-1v-1.5z"/>
  <path fill="#AA9F7C" d="m124 189c2-1.5 3-1.5 2-1 2-0.4 0 0 0 0l-2 1z"/>
  <path fill="#CECAA6" d="m124 192h2l-1 1h-1v-1z"/>
  <path fill="#CECAA6" d="m122 192 2 1h-2v-1z"/>
  <path fill="#F1EEE4" d="m60 199.6-6.2 8.4 4.1 3.4-4 5.5 4.6 3.3-4.1 5.3 4.8 3.2 6.8-9.7-4.4-3.4 4.1-5.4-4.6-3.3 4.6-6.1z"/>
  <path fill="#F1EEE4" d="m80 201.4-5.6 9.4 4.2 2.5-3.1 5.7 4.9 2.9-3.5 5.6 4.9 3 5.8-10.2-4.8-2.9 3.2-5.8-4.6-3 3.6-7.1z"/>
  <path fill="#F1EEE4" d="m96.9 200.1-4.4 8.8 4.5 2.1-2.8 6.2 5 2-2.7 6.3 5.3 2.5 4.3-11-4.9-2.4 2.6-6.1-4.8-2 3-6.5z"/>
  <path fill="#8E915C" d="m51.1 186c0.3-2 1.9-1 1.9 0l1-1h2l0.2 0.5c-0.2-0.5 1.8-1 1.8 0h1.7l1.3 1.5 2-1 2 1 2-0.5 5 1.5 1.4 1.1 2.6-0.6 5 1.5s-0.3 1.5 1 1.4c2 0.6 6 1.6 8 3.1l-4.7 0.1-6.3 0.4-6-0.5-4.7 0.1-6.3-1.6h-6l-5-1c-2-0.5-4.6 0-5-0.5l-1-1.5 4-2 2.1-2z"/>
  <path fill="#9CA26D" d="m39 188.5 3-0.5 4 1 4-0.5 1-2.5h2l1 2.5 4 0.5 3-1 1-0.5h2l2 1h3l2-0.5h1l2 1.5c0.9-0.5 0.3 0.5 0-0.5h-3l-3 2-3 1-3-0.6-1-2.4h-2l-2 1.5h-2l-2-1-6 1.5-4-1h-4v-1.5z"/>
  <path fill="#9CA26D" d="m108 198.4 4-0.4 4-1 3-1.5c5-1 8-2.5 5-1.5 3-1 5-2 3 0-3 2.5-7 2.4-9 3.6-2 1.4-5 1.4-6 1.4-2 0-9 1.4-9 1"/>
  <path fill="#8E915C" d="m124 193 2-0.5 1-0.5 1 2h1l1-0.5-1 1.5 1 1-5 2-5 4-4-0.4-4-0.6h-6l-3 1-1-0.5 4-1.5 5-1h3l6-2.5 4-1.5 2-1-2-1z"/>
  <path fill="#9CA26D" d="m124 199 2-1h3l-1-2 3-1-2-1.5v-0.5l1 1h-1 1l2 1-3 2.6-5 1.4-3 3h1l3 1-1-0.5 5 2-1-0.5 5-4-4-2"/>
  <path fill="#9CA26D" d="m120 202 8-1.5v-0.5h2 1-1 2l-3 3h-5l-2-1h-2z"/>
  <path fill="#9DA066" d="m121 191 5-3c4-1.6 0 0 4 0 0 2.5-2 4-3 5l-6-2z"/>
  <path fill="#888B61" d="m122 202s2 2.4 4 2.5c3 0 6-1.1 3-0.5l1-0.6-1 0.6 1-0.6 1-0.4h-1l1-0.5-3-0.5h-6z"/>
  <path fill="#A7A870" d="m121.2 133.3-1.2-2.3-0.9-2-1.9-1-0.8 0.5-1.4-1.5h-2-1l-2-1v0.5l-3-0.5-1 0.5-6-1-5 0.5h-6l-8.5 2-0.5 1-2-1 1 1-3 1v1l2-1 2 1.5 5-0.5 0.4 0.6 0.6-0.6c-2 1-1 6 0 2h2-1 1l2-1v1h4-3 4 4l6-1h0.6-1.6l7 1h1 1l-1-1v1h1 2l-1.7 0.3 0.7-0.3v-1l1 1 1-2 1 1 2 1h3l-0.8 0.3z"/>
  <path fill="#8E915C" d="m80 127.8 2-0.8 2 1 7-2h7 5l3 0.5 5 0.5 2 1 3 1 1 1-4 3-9-3h-4l-4 1h-6l-1 1-7-1h-2-2l2-3.2z"/>
  <path fill="#8E915C" d="m95 131 5-1h3 4c3 1 5 2 6 3h-3 2l-3-1-4-1-1 1-4-1h-5z"/>
  <path fill="#9CA26D" d="m78 129.7c2 0.3 1 2.3 5 1.3h2l2 1-3-1c-2 0.5 1 3 0 2 0 1 2 1 2 0l2-1v1l1-1c0 1 1 1 2 1l2 1-0.4-1c1.4 1 1.2 1 1.4 0l3 0.5 1-0.5 1 1 3-1 2 1 5-1-2 1h1 2c-1-2-6-3-9-2l-5-2h-6l-10-1.5-2 1.2z"/>
  <path fill="#888B61" d="m64 128 2-0.6 5 0.6v2l-3 1-3-1v-1h-1z"/>
  <path fill="#9CA26D" d="m66 130.2c1-0.2 4-0.2 4-0.2h2-1v1l-5 0.4v-1.2z"/>
  <path fill="#888B61" d="m99.6 135.5"/>
  <path fill="#9CA26D" d="m99.8 136 2.2-1h1c0.7 1-0.6 1-3.2 1z"/>
  <path fill="#8E915C" d="m93 165.4h2l3 0.6 2-1 2-0.5 2 0.5v1.5l-4.1 0.9-3.9 0.6-3-0.5-0.4-1 0.4-1.1z"/>
  <path fill="#9CA26D" d="m78.4 161 0.6-1 1-0.6v-0.4l1 0.5-1 1.5-2 1.5-0.6-1.1 1-0.4z"/>
  <path fill="#8E915C" d="m92 157h3v2l-2 3-4-1.5 1-2.5z"/>
  <polygon fill="#9CA26D" points="86 158 88 159 85 160"/>
  <path fill="#8E915C" d="m81.8 157.1-0.8 0.9 1 1 3-1v-2l-3.2 1.1z"/>
  <polygon fill="#8E915C" points="81 155.4 82 155.4 82 157 81 157"/>
  <path fill="#919366" d="m47.6 73.7 6.4-2.7 2 1 2-1 0.5-1h1.6l2.9-1h1.3l3.7-2.4-10.9-1.6-4.1 1-3 2-1.2 1-0.8 1.6-0.4 1.9z"/>
  <path fill="#9DA066" d="m76 66.4-1 0.6 1 0.6 5 0.4 0.8-0.5 2.2 0.5v-1.4l-3-0.6-5 0.4z"/>
  <path fill="#919366" d="m75.4 69.1c0.6-0.1 0.6 0.9-0.5 1.5l0.5-1.5z"/>
  <path fill="#9CA26D" d="m63.7 51c0.3 0 4.3-1 4.3-1l2 1h-4l7 1h1c1 2-1 1-2 0l-3-1 1 1s1 1-4 0v1h-1l-1-1v1"/>
  <path fill="#888B61" d="m76 66.6 6 0.4 2-0.4 0.4 0.4s-0.4 1 0 1h-0.4l-2-1s-2 0.4-2 1h-2l-2-1v-0.4z"/>
  <path fill="#8E915C" d="m75.4 154 1.6 1c2.1 0.6 13-0.4 13 0l-3 2 3-1v1l3 1h-2c1 1.4 6-2 6-1l-2 3 4 1 5 2h4l2 1 1-1 2 1-3 2.6-2 0.4 2 2 3-3 2-1-2 3 3 3h1s5-3 4-3l-2-4-2 1h-2l-1-2-3-1 2-1 4 4v-2h2l2-1h3l-4 4h2c6-3.5-1.9-3-1-4l0.7-1 0.3 1v-1h-1 1l-0.3-1 0.3 0.5v0.5h1 1l-3-3 3 2v4l3 1.5h1l1-1.5-3-6c-4-3-10-6.2-18-8-6 2-20 3.4-32.6 4"/>
  <path fill="#7C7B79" d="m112.5 160 1.5-1-1 1h-0.5z"/>
  <polyline fill="#7C7B79" points="114 160 113 160 114 159 114 160 114 160"/>
  <polyline fill="#6F6E6C" points="113 159.5 113 161 114 160.5 113 160"/>
  <polygon fill="#7C7B79" points="114 159 115 164 116 163 118 163 118 162 119.4 161 118 159"/>
  <path fill="#8E915C" d="m113 168 1-1h1c1-1 1 0 2 0 2-1 2 0 2-1l1 1-5 3.5-2-2"/>
</svg>