<svg xmlns="http://www.w3.org/2000/svg" viewBox="0 0 150 150">
<!-- SVG created with Arrow, by QuiverAI (https://quiver.ai) -->
  <path fill="#989A9E" d="m35.4 125.2c2.5-3.2 5.3-4.2 8.6-5.9l5.1-2.3c4.4 1.4 13.5 2.5 26.9 2.5 4.2 0 12-0.2 18.1-1 4.3-0.5 9-1.8 9.8-2.2l0.1-0.1c1.5 0.1 1.4 0 3.5 1.3 2.5 1.5 7.1 5.1 7.8 6.6l-79.9 1.1z"/>
  <path fill="#74767B" d="m116.2 125.2c-0.6-0.8-0.6-0.9-1.2-0.9l-66.8 0.7-12.8 0.2c-0.9 0.7-5.3 9 2.6 13.6 2.4 1.5 5.8 2.9 10.1 3.2 7.3 0.7 23.9 1 35.9 1.2 4.8 0 11.9-0.2 16.1-1 4.9-1 9-2.7 11.4-4.6 3.3-2.6 5.6-6 5.1-11.3l-0.4-1.1z"/>
  <path fill="#6C6D73" d="m113.3 129 2.4-1.1-1.3 4.4c-7 2.8-13.3 1.8-24.4-0.7-6.2-1.4-16.8-3.7-27.4-2-7.8 1.3-20.9 7.3-27.6 3.9-0.5-0.2 0.1-1.5-1.3-4.5l1.6-3.8 26.9-0.3h52.9l1.4 1.1c0.1 0.1 0.2 0.4 0.1 1.1-0.3 0.7-1.8 1.4-3.3 1.9z"/>
  <path fill="#838589" d="m52.8 92.2c-1.8 0.5-5.2 1.8-7.6 3.8s-4.6 5-4.5 7.3c0.1 1 8.2 3.6 13.7 3.7 2.6 0 7.1-2.6 13.3-3.6 6.8-0.9 9.3 0.1 15.9 2.2 8.1 2.7 10.7 4.1 14.4 4 2.7-0.1 8-0.8 8.9-1.3 1.9-0.7 0.8-3.3-0.1-6.3-0.7-2.6-7.8-10.3-11.1-10.6l-12.8-0.8-29-0.1-1.1 1.7z"/>
  <path fill="#717378" d="m106.9 100.5c-1-0.9-4.2 0.3-6.9-0.3-3.2-0.5-6.6-0.9-8.7-1.3-5.3-1-8.6-0.6-9.8-1.4-0.8-0.8-2.4-3.1-2.5-4l-8.1 0.5-12.9-0.6-5.4-1.2c-1.6 0.8-0.4 0-3.6 1.5-2.4 1.1-4 2.5-5 3.5-1.6 1.8-3.1 4.5-3.3 6.1 0 1.3 8.6 3.6 13.7 3.7 2.6 0 6.8-2.3 12.3-3.3 8.1-1.3 10.3-0.2 16.8 1.9 6.6 2.1 10.2 4 14.3 4 2.7-0.1 7.7-0.7 9.2-1.3 2-0.7 1.1-2.9 0.3-5.6l-0.4-2.2z"/>
  <path fill="#74767B" d="m106.9 100z"/>
  <path fill="#74767B" d="m106.9 100z"/>
  <path fill="#717378" d="m106.9 96.4c-2.1-2.3-6.8-4.1-11.1-5l-16.8 1.6-18.5 0.7-7.9-1.5c-2.8 0.8-5.6 2-7.8 3.8-1.1 1-3.7 3.7-4.1 6.7-0.2 1.3 0.8 1.1 1.7 1.6l-1.3 1.8c-0.8 1.2 0.5 3.5 0.2 3.7-0.2 0.5 0.6 1 1.3 2 1.3 1.5 3.4 4.2 6.5 5.2 4.3 1.4 12.8 2.5 26.4 2.5 4.7 0 13-0.3 19.6-1.1 2.9-0.4 8.3-1.6 9.5-2.5 2-0.3 4.1-5.1 3.7-5.9 0.8-1.1 2.3-9-1.4-10.8v-2.8z"/>
  <path fill="#7F8386" d="m45.4 85.7c0.4-3.9 7.4-7.6 12.6-8.1l6.1 0.3 28.9-1 2.3-0.4c0.9 0.2 1.8 0.2 1.6 1.1 1.7 0.2 1.5 0.3 2.3 1.4 1.9 2.5 2.7 2.5 3.1 2.8 0.5 0.4 0.2 1.8 0.3 2.4 0.2 1.3 0.2 2.4-0.3 3.3-1.2 1.2-1.6 2.4-6.6 3.9-2.1 0.4-6 1-11.1 1.4l-5.9 0.8c-7.7 0.7-18.3 1-25.8-1.3-2.5-0.7-4.4-1.9-6.6-3.7-0.4-0.4-1.3-1.9-0.9-2.9z"/>
  <path fill="#ABADB2" d="m60.5 78.4c-2.8 1-7.9 2.7-8.4 5.2-0.2 2.6 6.6 3.4 10.6 3.4 4.5 0 8.9-0.7 15-2 7.3-1 18.8-2.2 24.8-2.1 0.3-1.1-0.3-1.3-0.8-1.5-0.8-0.5-2.7-3-3.3-3.6-0.2-0.1-1.5-0.2-1.5-0.2 0.1-0.9-1.9-1.2-2.8-1.5l-2.8-0.1h-26l-4.8 2.4z"/>
  <path fill="#74767B" d="m45.2 85.9c0.8 3.2 14 3 25.4 2.3l17.8-0.6 14.2-1.3c0.3 0 0.3 0.8-0.3 1.3-1.3 1.7-2.3 2.8-6.6 3.8-3.5-0.8-11.9 1.3-16.7 2.1-7.4 0.5-18 1.2-26.1-1.2-3-0.9-3.8-1.6-6.5-3.6-0.8-0.5-1.4-2.3-1.2-2.8z"/>
  <path fill="#636569" d="m79 93.5c1.7-0.3 7.5-0.5 16.8-2.1 0 0-1.7-0.5-6.1 0.2l-10.7 1.9z"/>
  <path fill="#66686C" d="m41.5 110.4c0.7 1 4.7 3.6 6.6 5.2l56.5 0.1c0.9-0.1 1.7-1.1 2.5-2.8l0.3-1.5c-13.7 3.3-22.7-3.8-33.9-4-7 0.2-12.4 2.2-18.9 3.9-4.5 0.8-9 1.7-13.1-0.9z"/>
  <path fill="#838589" d="m54.4 75.5c-2.5-1.9-4.4-7.3-1.5-10.1 3.9-3.9 9.1-5 17.1-3l16.6-0.2c4.9 0.8 10.3 3.8 10.2 8.8v1.9c0 0.7-2.3 2.5-3 3.1l-7.1 1.9-17.3 1.1c-5.8-0.4-11.6-1.1-15-3.5z"/>
  <path fill="#9EA3A6" d="m54.4 75.5c3.4 0.6 9.8 1.2 18.9-1.8 5.7-1.8 8.3-2.7 15.7-2.7 3.7 0 7 0.4 7.8 1.6 0.8 2-1.1 2.4-2.8 3.5-4 2.3-17 3.7-24.1 3.3-7.2-0.2-11.7-1.2-15.5-3.9z"/>
  <path fill="#8E9297" d="m55.6 56.7c0-1.1 0.8-2.1 2.4-3.3 2-1.5 3.7-2.7 7.7-3.4l17.1-4c1.6 0 5.9 0.4 6.3 1.1-1.2 1.5-6.6 5.1-14.1 6-6.9 0.9-9.9 1-15.5 3.3-0.6 0.2-4.1 1.1-3.9 0.3z"/>
  <path fill="#868B91" d="m59.4 61.1c-1.7-1-3.9-2.5-3.8-4.4 5.4-0.3 11-1.1 17.3-1.2 6.1 0 12.2-1.8 15.3-5.1l5.3 0.2 0.4 1.5 1-0.7c0 2.8-1.5 5.6-3.2 7.5-2.1 1.7-4.3 3.3-7.7 4-3.6 0.7-11.1 1.1-14.4 0.7l-10.2-2.5z"/>
  <path fill="#6D7075" d="m60 61.4c5.7-0.8 9.7-4.4 12.4-5.2 5-1.6 8.3 0.4 12.3-0.4 4.9-0.7 9.6-2.9 10.2-4.4 0 2.5-1 5-3 7.2-2 1.8-5 3.8-8.2 4.3-7.2 1-17.3 1.1-23.7-1.5z"/>
  <path fill="#A0A5A9" d="m85.4 50 3.7-2.8c-0.9-0.6-2.5-1-4-1l-2.5 0.8 1.5 2.6 1.3 0.4z"/>
  <path fill="#6C6D73" d="m88.1 50.6-2.2-0.6-0.7 0.4c-2.9 1.2-5.7 2.6-10.7 3-7.1 0.3-9.8 0.8-15.1 2.7l-3.8 0.8 5.1-0.3 15.9-1.2c5.4-0.8 8.1-1.5 11.5-4v-0.8z"/>
  <path fill="#8DA457" d="m59.7 61.4c-1.2 0.2-2.7 1.2-2.6 2.1 0.1 0.4 1.4 0 1.4 0 0.7 1.2 3.5 1.7 3.9 1.4 0.2 1 1.5 1.2 2.2 0.8 4 0.4 4.8-1 5.4-2.1l-7.6-1.9-2.7-0.3z"/>
  <path fill="#66686C" d="m62.1 38.6c-2 0-5.5 1.3-5.9 3.8-0.7 3.5 1 6.6 6.7 7.5 3 0.5 8.3 0.3 14-0.5 2.8-0.8 5.2-1.3 7.6-2.5 2.1-0.9 4.1-2.3 4.2-4.3 0-1-0.8-1.2-2.3-2.2l-4-2-14.2-0.8-6.1 1z"/>
  <path fill="#909499" d="m55 33.2c0.4-2.6 6.7-5 10.7-6.2 1.3-0.4 9.7-0.9 14.3-0.4l5.2 1.1c2.2 1 6 2.7 6.1 6l-1.4 2.8-2.3 0.9-12.1 1.6h-10.5l-5.5-0.8c-1.4-0.6-4.5-2.6-4.5-5z"/>
  <path fill="#6D7075" d="m55.1 33.4c1.9 0.3 4.5 0 11.1-0.2 12.7-0.5 19.2-1.2 19.4-3.2 0-0.4-0.6-1.3-0.9-2.1l5.4 2.5c0.9 1 1.9 2.2 1.3 4.2-1 1.3-2.3 2.3-4.4 2.8l-4.8 1.2c-7 0.4-13.3 1-22.2-0.2-1.1-0.4-4-2.7-4.4-3.5l-0.5-1.5z"/>
  <path fill="#74767B" d="m60.5 22.9c0-3.9 5.6-4.7 7.6-5.5l9.9-0.3c2.2 0.4 10.2 1.5 10 5.8-0.3 3.1-1 4-3.8 5.2l-7.7 0.6-9.4-1.3c-3-0.5-6.6-2.8-6.6-4.5z"/>
  <path fill="#66686C" d="m60.5 23.2c4.2-0.8 9.7 0.3 18.1 1.7 3.4 0 7-1.3 9-1.4-0.7 1.4-5.4 1.4-9 1.5 2.9 0.7 8.3-0.6 9-1.6 0 2.2-0.4 4.2-4.4 5-4.5 0.8-11.6 0.5-15.5-0.5-2.6-0.5-7.2-2.3-7.2-4.7z"/>
  <path fill="#85878C" d="m62.6 14c0-1.1 2.3-2.6 3.8-3.3l6.5-2.8c2.2-1 4.3-1.4 6-1.4 1.8-0.1 2.6 0.6 2.7 2.5l-5.7 6-4.9 2.7-4.3 0.2c-0.5 0-4.1-2-4.1-3.9z"/>
  <path fill="#6D7075" d="m62.5 14c5.9 1.7 17.4-2.3 18.5-5.1 1-2.5-1-2.4-2.1-2.3-1.5 0-3.9 0.4-6 1.3l-6.9 3c-0.8 0.5-3.1 1.7-3.5 3.1z"/>
  <path fill="#626468" d="m66.4 17.9c1.5 0.3 2.8 1.1 6.8 1.1 4.5 0 10-2.3 10.4-7.4 0-1-0.7-1.6-1.7-2.2l-1.3 0.2-4.6 4.9-4.4 2.6-5.2 0.5v0.3z"/>
  <path fill="#8E9297" d="m71 17.4 2.6-0.7-1.8 1-0.8-0.3z"/>
  <path fill="#636569" d="m67 17.9 2.4-0.5 1.2 0.2-1.4 1-2.2-0.7z"/>
  <path fill="#66686C" d="m71.6 17.4 0.8 1.6c1.5 0.2 5.3 0 7.6-1.6l-4-0.8-4.4 0.8z"/>
  <path fill="#A4A9AD" d="m80.6 7.1c0.4 0.3 0.9 1.5 0.4 2.5l0.5-0.6c0.4-1.1-0.1-1.9-0.9-2.3v0.4z"/>
  <path fill="#6D7075" d="m55 33.4c1.9 3 7 3.7 13.5 2.5 6.6-1.3 10.6-2.3 17.4-1.5 1.8 0.2 5.1 0.7 5.5-0.4 0.5 1.6-1.5 2.6-2.5 2.9-2.5 0.8-4 1.3-6.7 1.7-5.6 0.4-15.3 1.1-22.2-0.2-1.4-0.4-4.4-3.4-4.5-3.8l-0.5-1.2z"/>
  <path fill="#878F47" d="m73.6 49.6c0.6 0.3 0.8 0.5 1.5 0.5l2.3-0.1c1 0 1.8-1 2.2-1.4l-5 1h-1z"/>
  <polyline fill="none" stroke="#EEEEE3" stroke-width="3.4764" stroke-miterlimit="10" points="65.6 123.2 62.4 128.2 64.7 130.1 62 134.1 64.1 135.9 61.9 139.9"/>
  <polyline fill="none" stroke="#EEEEE3" stroke-width="3.4764" stroke-miterlimit="10" points="77.6 123.9 75 129.9 78 131.1 75.6 135.5 78 136.9 75.9 141.1"/>
  <polyline fill="none" stroke="#EEEEE3" stroke-width="3.4764" stroke-miterlimit="10" points="88.4 123.2 86 128.4 89.5 129.4 87.4 134.1 89.7 135.1 88.4 139.6"/>
</svg>