<svg xmlns="http://www.w3.org/2000/svg" viewBox="0 0 150 150">
<!-- SVG created with Arrow, by QuiverAI (https://quiver.ai) -->
  <path d="m30.6 140.5c1.4 0.9 2.4 1.5 4.5 1.6 9.1 0.5 21.3-0.1 21.3-0.1l-9.6-9-13.9 2-2.3 5.5z" fill="#656555"/>
  <path d="m96.7 142.6 17.8-0.6c2.4 0 4.8-0.7 5.8-1.4l-3.5-4.6h-18.7l-3.3 5.2 1.9 1.4z" fill="#656157"/>
  <path fill="#B49473" d="m35.8 123.3c-2-2.4-5-3.2-8.2-3.8-3.6-0.6-12.9 1.2-14.8 12.3-0.8 4.3-0.2 7.9 7.5 9.5 6.9 0.9 12.2 1.7 15-4.4l1.5-6.9-1-6.7z"/>
  <path fill="#C6A884" d="m13.5 130.7c1-0.4 5.7 1.2 6.1 1.2l-5.5-2.5c-0.3 0.3-0.4 0.8-0.6 1.3zm0 4c-1.3 2.2 0.9-0.2 12.8 0.1 4.6-2 7.7-7.2 8.6-12.2-1.8-1.5-4.3-2.6-7.3-3.1-3.2-0.5-10.6 0.8-13.8 9.3l5.5 3.3-6.1-1.2c-0.3 1.3-0.4 3.3-0.4 4l0.7-0.2zm5.6 1h6.5c-2.5 1.3-3.8 1-6.5 0z"/>
  <path fill="#7F7367" d="m131 123.4-1.2-1-11.5-1.1-13.4 7.7 3 10.2c2.7 0.8 5.9 1.2 8.5 0.3 3.8-1.2 15-10.8 15.1-13.2l-0.5-2.9z"/>
  <path fill="#BBAE9F" d="m30.1 102.9c-2.8 0.6-9.9 7.4-10.5 12.2-0.2 2 0.9 4.6 2 5.4l15.2 3.8 13.2-4.3-5.1-11.7-14.8-5.4z"/>
  <path fill="#9D9084" d="m123 112c1-0.2 7.9 1 8.4 6.8 0.5 4.9-3.2 4.8-3.2 4.8h-17.2l-6.3-2.3 0.3-6.7 18-2.6z"/>
  <path fill="#A19182" d="m124.7 112 0.9 1.6c1.4 4.7-6.6 6.4-10.1 7.7l0.4 0.2c-1.8 0.1-3.8 0.1-6-0.6l-5.3-0.4 0.3-5.9 18.1-2.8 1.7 0.2z"/>
  <path fill="#B49473" d="m117.4 120.2-1.6 1c0.7 0.2 3.7-0.3 3.9-1.4l-2.3 0.4z"/>
  <path fill="#726A5F" d="m117.9 99.1c1.7 0.4 8.3 2.7 8 7.4-0.3 3.2-3.7 6.1-6.9 7-2.8 0.8-8.5 1-8.5 1l-6-2.6 1.7-11.9 11.7-0.9z"/>
  <path fill="#B49473" d="m118.2 92.9c3.4 4.5 1.2 7.8-6.6 8s-10.7-1-10.7-1l1.6-6.5 8.5-3 7.2 2.5z"/>
  <path fill="#9B9B98" d="m117.7 89.6c0.6 1.4 1.6 4 1.5 4.2-2.6-1.7-5.2 1.7-9.8 2.3-4.2 0.5-9.2-1.9-9.2-1.9l3-8.7 9-0.1c1.8-0.4 3.7 0.3 5.5 4.2z"/>
  <path fill="#B49473" d="m96.2 73c2.5-0.1 6.1-0.6 7.5-0.4 1.8 0.1 5.7 1.5 6.8 2.7 1.6 1.6-0.3 5-0.3 5s-9.2 1.9-12.8-1.3l-1.2-6z"/>
  <path fill="#B49473" d="m104.1 86.2 0.9 1.2 3.4-0.3 1.2-1-4-0.1-1.5 0.2z"/>
  <path fill="#6D6C6C" d="m94.5 60.7 8 0.4c2.6 0.6 3.7 3.1 3.7 4.9 0.2 3.1-1.6 6.1-3.8 7-1.8 0.7-6 1.1-7.8 0.6l-2.6-1.9 0.7-7.6 1.8-3.4z"/>
  <path fill="#70706E" d="m95.8 68 4.3-0.9c2-0.4 4.6 0.7 5.1 1.3l-0.5 0.2c-3.3-2-5.8-0.9-8.9-0.2v-0.4z"/>
  <path fill="#726A5F" d="m96 69.7s2.4 0.9 2.5 1.4c0.1 1.5 0 1.9-2.9 2.3l-0.1-3 0.5-0.7z"/>
  <path fill="#ABA39C" d="m93.9 53c3.3 0.6 9 1.7 9 4.6 0.3 3.8-1.5 7-7.5 8l-5.9-0.5-2-7.2 6.4-4.9z"/>
  <path fill="#ADA69E" d="m102.9 56.6c1 1 0.6 3.9-2.4 4.4-4 1-9.4 0.6-12.6-0.1l0.5-1.9 6.8-5.8c0.9 0.3 6.7 1 7.7 3.4z"/>
  <path fill="#9F968A" d="m99.3 60.2c-2.2 0.9-6.2 2.3-7.6 0.8 1.4-0.9 4.3-0.1 7.6-0.8z"/>
  <path fill="#8C8984" d="m54.2 65.5-8.2-0.7c-3.9-0.2-5.8 3.1-5.5 5.2 0.7 4 2.7 4.5 5.5 4.9s8.7 0.8 8.7 0.8l2.3-5.3-2.8-4.9z"/>
  <path fill="#B49473" d="m59.5 54.9c-4.5-0.7-9.5-0.9-12 2.3-2.1 2.5-2.3 7.2 1.7 7.5l8.8 0.8 5.1-3.9-3.6-6.7z"/>
  <path fill="#C6A884" d="m59.4 59.9c-2.3 1.1-6.5 2.7-8.7 2.5-1.7-0.2-3.8-0.4-4.1 0.7 0.6 0.9 1.3 1.5 2.6 1.6l9.3 1.2 4.1-3.4-3.2-2.6z"/>
  <path fill="#ACAA9F" d="m47.2 65.6c1.2-0.1 3.2 0 3.2 0-1.8 0.1-6.4 0-8.3 2l-1 1.3c-0.2 0.1 0.6-2.7 3.3-3.3h2.8z"/>
  <path fill="#ACAA9F" d="m40.7 68.9c2.4-2.9 5.5-0.4 11.3 1.7 2.1 0.4 4.4 0.3 3.5 1.9l-2 2.2-9.1-2.7-3.7-0.4v-2.7z"/>
  <path fill="#9F968A" d="m53.5 74.5c-3.5-0.5-9.5-4.1-11.5-2.6-1.1 0.7-0.3 1.1 0.5 1.7 2.2 2 12 2 12 2l-1-1.1z"/>
  <path fill="#70706E" d="m41.7 73.2c-3.1 1.8-4.1 5.7-2.7 7.3 1.6 1.7 8.1 2.4 10.6 2.5 2.3 0 7.5-4.5 7.5-4.5l-3.1-3c-3.5 0-6.5-0.5-8.5-0.8s-3.5-1-3.8-1.5z"/>
  <path fill="#726A5F" d="m39 79.4c0.2-1.3 2.9-1.5 4.9-0.8s3.5 0.3 4.2-0.1c1.3-0.5 5.1-1.9 6-0.4l-1.2 3.4-11.2-0.3s-3.2-0.6-2.7-1.8z"/>
  <path fill="#B49473" d="m49.9 90.9 1.5-1.3-4.3-3.4-8.1-0.6-6.5 3.4c0 3 2.1 4.6 7 4.7 4.9 0.3 8.5-0.8 10.4-2.8z"/>
  <path fill="#9D9084" d="m32.4 89.4c-0.3-4.4 2.2-8.8 7-8.4 3.8 0.2 7.5 2.1 11.3 1.6l-4.6 5.3-5.6 1.8-8.1-0.3z"/>
  <path fill="#9F968A" d="m32.5 88.7v1.2c1.4-1.3 5.5-0.7 15.5-0.3l-2.4-2.6c-4 1.2-9.4 2-13.1 1.7z"/>
  <path fill="#8E8888" d="m59.2 47.1c-4-0.5-8.8 0.5-9.9 3.5-0.3 1.3 1.2 3.9 2.9 4.1 2.2 0.3 4.8 0.8 4.8 0.8l3.5-3.9-1.3-4.5z"/>
  <path fill="#726A5F" d="m93.8 43.5c3.7 0.7 6.7 6.1 2.9 9.9l-8.8-0.4-3.2-7 9.1-2.5z"/>
  <path d="m88.9 36.6c3.1 0.8 6.7 4.9 5 7-1.4 1.4-6.9 1.9-9.2 2.4l-3.2-4.3 3-5.7 4.4 0.6z" fill="#9A9384"/>
  <path fill="#90877E" d="m108.9 107.9c3-1.3 10.5-1.5 17-1.2 0 2-2.8 5.5-5.7 6.5-4.5 1.3-9.2 1.4-12.5 0.9l-3-1.1 4.2-5.1z"/>
  <path fill="#C6A884" d="m38.1 89.7 5.8 0.3c-0.3 1.1-3.3 0.4-4.9-0.3h-0.9z"/>
  <path fill="#9D9084" d="m30.2 93.9c-2.7 2.2-5.2 6-0.3 9.1l12.6 0.5 2.2-7.4-0.8-3.5-8.9-1.1-4.8 2.4z"/>
  <path fill="#696857" d="m33.6 92.1c-0.7 0.3-3 1.3-3.4 1.9 2.2 2.1 8.3 1.4 10.4 4.9-0.5-0.8-2-1.2-2.7 0.2-1.2 2.8 2 3 4.1 3.8l2.4-6.4c0.2-1.5 0-2.6-0.8-3.6l-7.7 0.1-2.3-0.9z"/>
  <path fill="#9D9084" d="m101.6 91.5 0.3-0.1c2.8 1.1 14.6 3.2 15.8 0.3v-1.2l1.5 3.1c-2.1-0.7-4.5 1.4-7.2 2.1-4 1.2-7.4 0-10.9-1.1l0.5-3.1z"/>
  <path fill="#696857" d="m103.9 88c-2.5 2-3 5.5-3 5.5l-7.3-2 2.4-4.3 7.9-1.6v2.4z"/>
  <path fill="#70706E" d="m42.4 110.7c-2.5 1.9-10.5 5.3-18.4 6.7l-4.3 0.1c0.4 1.5 0.8 2.5 1.4 3l14.3 2.1 12.2-3.9-3.1-8.3-2.1 0.3z"/>
  <path fill="#9D9084" d="m19.9 114.1 0.2 0.3c3.4 1.1 6.8 2 11 1.5-1.5 0-7.2 0.5-7.7-0.8-0.4-0.7-0.2-1.1 0.2-1.4 0.3 2.3 5.1 2.2 7.8 1.9 4-0.7 8.5-2 11-4.2l-1.8-4.7-9.9-3.6c-3.2 1.1-9.5 6.4-10.8 11z"/>
  <path fill="#696857" d="m30.1 103.2 0.9 0.2c1.6 0.2 8.9 0.2 10.7 0.1l1.2 4.2-1.9-0.2c-0.8 0.7-2.5 3.6-2.6 3.6 0-1.4 2-3.7 0-4.5 0.2 1.1-0.3 3.3-1.2 2.9-0.5-0.8 0.9-2.3 0.3-3-1.6-2-3.6-0.3-5.9-1.8-0.9-0.1-1.7 1.2-1.5-1.5z"/>
  <path fill="#696857" d="m41.4 96c0.6 1 0 3.5-0.9 4 0.7-0.5 1-3 0.9-4z"/>
  <path fill="#696857" d="m37 102.6 2 0.1-1.4 0.4-0.6-0.1v-0.4z"/>
  <path fill="#9D9084" d="m104 124c13.6-0.1 19.1-6.1 23.6-6.1 1.6 0 3.6 0.8 3.8 1.6 0.5 3.1-6 5.4-11.7 4.1-5.7-1.1-5.3 1-16 0.8l0.3-0.4z"/>
  <path fill="#938C7E" d="m116.6 125v1.1c1.4 2-0.5 9.4-9 13.6-4.6 1.8-7.6 3.3-23.5 3.7l-10.6-0.2c-9.5-0.1-18.3-0.1-26.1-0.8-5.3-0.5-15.3-3.9-14.3-11.9 0.8-5.1 3.1-6.5 3.1-6.5l14.8 0.9 58.4-0.4h5.7 0.3 0.1l0.2 0.1h0.2l0.1 0.1 0.5 0.4 0.1 0.1v0.2 0.1 0.1-0.1-0.5z"/>
  <path fill="#979183" d="m116.6 126.1-2.2 6.4c-4.8 2.5-12.8 2.5-22.8-0.6-6-1.8-6.1-1.5-9-1.7-3.2-0.1-7.1-1.2-11.4-1.3-11.1 0-19.5 4.2-28.1 5.7-2.6 0.4-8.4 0.4-8.4-1.6s-1.1-1.9-0.6-4.6l1-3 12-1.3 68.1 0.4h0.3l0.6 0.5 0.5 1.1z"/>
  <path fill="#A09587" d="m116 127.6c-0.3 0.5-3.3 2-3.5 1.8l3.5-1.8z"/>
  <path fill="#8A8676" d="m132.5 125.5c1.1 1.2 5.5 7 4.6 11.6-0.2 1.6-1.2 3.4-7.4 4.3-3.5 0.5-6.7 0.2-10.7-0.5-3.4-0.8-3.9-1.7-3.9-2.9 0-4.1 0.9-7.9 3.6-10.8 1.7-1.6 5-3.6 9.2-3.7 2.6 0 3.6 0.6 4.6 2z"/>
  <path fill="#938C7E" d="m133 125.9c1.6 6-5.1 11.7-11 11.5-2.4-0.2-5.4-1.8-6.8 0.6 0 2 3.4 2.5 8.2 3 3.5 0.2 12.2 0.1 13.2-2.5 2.1-4.9-2-10.6-3.6-12.6z"/>
  <path fill="#87826D" d="m127.6 137.6c2.6-0.5 5.1-4 8.6-4.7-0.2 4.1-4.1 4.6-8.6 4.7z"/>
  <path fill="#696857" d="m43.1 92.9 7-1.9 4.1 1.5-9.8 5.1-0.2-4-1.1-0.7z"/>
  <path fill="#8F8C83" d="m108.7 100c-0.6-3.6-4.7-6.5-15.1-8.8l-18 2.7-22.4-1.7c-5.2 1.7-11.5 4.9-12.5 10.2l0.7 8.3c1.1 2.2 5.6 6.5 7.5 7l55.7-1.2c3.3-1.4 5.8-10.1 4.1-16.5z"/>
  <path fill="#72747A" d="m42.5 104.5c-1.4 1.5-1.9 2.4-1.6 3.4l0.6 2.6c0.9 1 5.5 5.1 6.9 5.2h56.3l1.2-0.2c1.1-0.9 1.5-2.9 1.6-4.1l-6-4-34.4-3.4-24.6 0.5z"/>
  <path fill="#66686D" d="m41.5 110.5c4.9 3 11.1 2 19.4-0.1 14-3.8 16.5-2.9 25.6-0.4 9.2 2.4 12.1 3.5 20.5 2 1.9-0.4 1.5-2.6 1.1-2.9l-27.5-5.2-26.1 2-10.5-0.5-2.6 4.5 0.1 0.6z"/>
  <path fill="#818181" d="m52.9 92.2c-3.7 1-11.9 4.8-12.2 11.3 0.8 1.1 8.3 3.5 13.5 3.5 4.3 0 7.9-3.4 16.9-3.8 8.6-0.2 15.1 5.2 24.9 6.5 2 0.3 11.4-0.6 11.5-2.7l-1.4-6.1-4.2-6.9c-2.9-1.4-5.7-2.8-8.5-2.8l-18.8 2.7c-6.5 0.7-17.1 0.1-21.7-1.7z"/>
  <path fill="#ACA7A3" d="m96.9 72.4c0.1 0.6 0.3 1.5 0.1 1.7-4.6 4.8-12.1 5.9-24.5 5.3-8.4-0.4-14.9-0.4-18.5-3.7l2.4-7 33.5-2 7 5.7z"/>
  <path fill="#8C837A" d="m60.1 61.5c-3.4 0.5-8.7 3.5-8.7 7.6 0 3.9 1.6 6.3 2.6 6.6 14.2 1.3 16.6-2.2 25.5-3.8 3.5-0.7 15.7-1.8 17.4 1 0.3-4.5-0.8-8.4-10-10.8l-17-1.5-9.8 0.9z"/>
  <path fill="#B2AFAA" d="m55.6 57c0.4 2.1 2.4 3.5 4.4 4.4 4.4 0.3 9.2-2.3 12.9-4.9l15.1-4.4 0.5-3-12.1-2.5-13.8 2.9-7 6.6v0.9z"/>
  <path d="m85.6 46.2c-4.6 1.7-8.4 2-10.5 2.7l0.5 1.2c3.8 0.1 3.8-1.2 7.4-1.9 4-0.8 7-1.1 3 1.7 3.9 1 9.2 1.6 8.9-3.4l-5.9-1.5-3.4 1.2z" fill="#ABA79C"/>
  <path d="m55.6 57c10.1-1 14.3-1.5 20.4-1.4 3.7 0 10.9-1.7 13.5-5l-3.6-0.6c-1.9 1-5.3 3-9.2 3.4-5 0.5-9.8-0.2-19.7 3.6h-1.4z" fill="#A39C91"/>
  <path fill="#8F9085" d="m86.7 62.5c4.2-1.5 7.9-4.9 8.2-10.9-1.8 2-9 4.8-13.9 4.4-6.3-0.8-8.4-0.6-11.4 1.1-3.6 2-6.9 3.9-9.6 4.3 5 1.8 13.7 3.2 26.7 1.1z"/>
  <path fill="#8F8F8E" d="m57 89.7c10.6 0.4 32-1 45.9-3.1 0.7-2-0.3-4.7-0.4-4.7l-7.6-5.5c-3.9 1.6-8.8 1.6-12.8 1.6-6.2 0.1-13.1 1.5-15.6 1-3.9-0.5-5.9-1.1-8.9-1.5-6.2 1.1-12.7 4.6-12.4 8.7l6.8 3.8 5-0.3z"/>
  <path fill="#AEAAA6" d="m52.1 83.9c0.5 3.2 5.8 3.6 11.1 3.3 8.5-0.2 11.2-1.7 20.2-2.8 8.7-1 12.2-1.2 19.2-1.3l0.3 3.5-8.8 4.5-23 2.5-15.2-0.7-10.4-6.3c-0.5-2.7 4.5-6.5 6.6-2.7z"/>
  <path fill="#8F8B7A" d="m102.9 86.2c-0.8 2.4-3.4 4.3-6.8 5.3l4.9 1.9c0.9-2.4 2-4.3 3.6-5.4l-1.4-2.4-0.3 0.6z"/>
  <path d="m45.2 86.1c6 2.9 15.2 2.5 26.8 2.3 11.5-0.3 26.9-0.9 30.9-1.8 0.1 2.4-3.9 4.6-6.8 5l-2.4-0.2-11.6 1.6c-5.4 1.1-21.2 2.4-29.2-0.5-2.9-1-7.9-3.5-7.7-6.4z" fill="#797876"/>
  <path d="m65.5 27.1c-3.3 0.9-10.5 3.3-10.5 6.4 0 1.6 2.4 3.5 4.5 4.9l11.2 1.6 17-2.9 0.4-6.1-6.5-4-16.1 0.1z" fill="#8C8A86"/>
  <path d="m84.4 28c3.5 1 7.1 2.9 7 6.4-0.3 2.3-3.2 3.1-6.4 3.7-3 0.5-16.9 1.3-25 0.3-0.9-0.3-5-2.9-4.9-4.9 0.9 1 12.5-0.5 16.9-0.5 6.9-0.5 14.4-1 13.6-3l-1.2-2z" fill="#71706F"/>
  <path d="m60.5 23.4c-0.4-4.5 7.5-5.5 13.2-6s14.4 1 14.3 5.6c-0.3 3.4-1.4 5.5-10.4 5.9-5 0-12.7-0.8-15.9-3.9-0.6-0.5-1-0.9-1.2-1.6z" fill="#8D8A85"/>
  <path fill="#6D6C6C" d="m60.5 23.5c2.1-1 7.5-0.1 18 1.4 3.1 0.5 9.2-1.5 9.4-1.3l-0.2 0.5c-1 0.9-5 1-9.2 0.9l-0.4 0.1c4 0.5 9.3-0.6 9.6-1.5-0.3 3.3-1.7 5-10.7 5.3-9.4 0-14.6-2-16.5-4.3v-1.1z"/>
  <path d="m62.6 14.1c-0.1-1.4 2.5-2.9 3.9-3.4 3.9-1.6 6.4-3 9-3.7 4.4-1 5.6-0.9 5.9 1.4l-7.7 8.6c-3.3 1.4-9.1 0.9-11.1-2.9z" fill="#82817E"/>
  <path d="m72.4 17-0.4 1.1c0.6 1.8 4.2 0.9 6.4 0.3 3.6-1.3 5.2-4 5.2-6.7-0.1-1-1.2-1.8-2-2.2l-5.6 5.5-3.6 2z" fill="#636262"/>
  <path fill="#756B5B" d="m56.1 43.5c-0.5 5.2 3.6 6.9 9 6.9 4.9 0.1 21.6-0.4 23.4-6 0.5-2.3-0.1-2.8-1.1-3.3-1.2-0.6-3-2-5-2.6h-17.9l-5.1 0.5c-1.3 0.5-3 1.6-3.3 4.5z"/>
  <path d="m62.6 14.5c5.6 1.4 16.4-2 18.5-5.4 0.1-0.5 0.6-1.7-0.6-2.1 0.2 1.6-2 3.4-5.4 4.9-4 1.7-7.9 3.5-12.5 2.1v0.5z" fill="#8E8F8C"/>
  <path fill="#979376" d="m56.2 43.4c1.2-4.7 6.9-5.8 12.3-4l0.1-0.2-0.1 0.8-1.9 0.9-10.5 2.5h0.1z"/>
  <path fill="#979A69" d="m56.1 43.4h0.1l3.7-1.2c1.1-0.3 1.3 1.2 3.1-0.6 0.4-0.5 4.9-0.5 5.6-2.2l-5.5-0.9c-3 0.2-6.7 1.4-7 4.9z"/>
  <path d="m66.1 30.1 0.4 0.5 0.9 0.6v-0.8h0.7c0.5 0.5 1.6 0.6 2.1 0.3-0.2-0.3-0.6-0.5-1.3-0.5l1.5-0.3-1.3-0.5-2.4 0.3-0.6 0.4z" fill="#92966C"/>
  <polygon points="71.4 30.7 71.6 31.1 72.2 31.2 72.6 30.9 72.2 30.5" fill="#9EA269"/>
  <path d="m73.4 39.5c-1 1.2 1.3 0.9 3 0.6 1.6 0.1 2.5 0.4 2.2-0.5l-1.2-0.5h-3.5l-0.5 0.4z" fill="#979B67"/>
  <polyline points="73.5 41 73.1 41.4 73.4 41.7 73.7 41.1 73.5 41" fill="#909365"/>
  <path fill="#939560" d="m66.4 78.5c0.6 1.4 1.1 0.7 1.3 1.7 0.4 0.3 2.5-0.3 2.9-0.2 0.1-1.4 0.1-1.9-1-1.8-1.2-0.3-2-0.6-3.2 0.3z"/>
  <path fill="#838659" d="m73.7 80c0.4 0.6 1.3-0.6 1.8-0.1 0 0.7 1.5 0.7 2.5 0.3 0.2 0.9 1.4 2.4 1.6 1.4l0.1-0.5 2.3-0.1 2.4 0.6 1.2-0.5 2 0.6 0.9-0.1c0.7 1 2.6 0 3.1 0.4l2-0.4 0.8 0.4h0.7l-2.5-1.6-6.5-1.4-8-0.9c-1.2-0.1-3.7 1.6-4.4 1.9z"/>
  <path fill="#939560" d="m75.5 78.7 2-0.7c2.5 0.6 3.2-0.9 7.9-0.8 3.5-0.1 2.7-0.6 5.1-0.1 2.6 0.3 5.2-0.2 6.5 0.9 0.9 0.2 2.5 0 2.5 0.9-0.1 0.8-1.9 2.5-2.8 2.3l-3.7-1.1-1.4 0.3c-0.5-0.4-5.2-0.8-7.1-0.7-3.5 0.2-8.3-1.1-9-1z"/>
  <path fill="#878856" d="m98.1 78.4c1.3-0.4 2.9-0.3 2.9 1.5 0.4 1.1 1.1 0.6 1.4 1.5l-1.9-1.2-1.5 1h-0.8l-0.1-2.8z"/>
  <path d="m99.1 81v0.4h-1.2l0.2-0.3h1z" fill="#888A5C"/>
  <path d="m97.2 81 0.3 0.4v0.2h0.5l0.5-0.5-1.3-0.1z" fill="#9C997B"/>
  <path fill="#939560" d="m89.5 82.6-0.1 0.3 0.8 0.3 0.8-0.2-0.8-0.5-0.7 0.1z"/>
  <path fill="#7C7364" d="m100.7 78.9 2.7-0.2c11-0.5 10.8 2.3 10.6 3.7-0.9 5-7 4.8-9.3 5.3l-1.8-1.7-0.2-3.9-1.6-1.4-0.5-1.6 0.1-0.2z"/>
  <path d="m104.4 80.7c2-0.5 2.6-2.1 5.6-1.7 4.5 0.2 4.2 2.4 3.9 2.9-2.4 3.1-3.2 2.5-9.2 4.1l-2.2-1.5v-3l-0.9-0.6-0.1-1.8 2.9-0.2v1.8z" fill="#8A9750"/>
  <path d="m104.2 80.5 5.5 1.7h0.7l1-0.8 0.5-1.8-2.5-0.6-2.5 0.2-1.4 1.3h-1.3z" fill="#929F53"/>
  <polygon fill="#93966E" points="105 81.5 105.5 83 108.5 83.4 109.1 83.2 105.2 81.5"/>
  <path d="m113.9 81.2c-1 2.8-3.2 3.9-11 4.8l0.1 0.4c2.1 1.8 7 1.1 9.5-0.4 1.4-0.8 2.4-3.6 1.4-4.8z" fill="#72705E"/>
  <path d="m103.9 89.1 0.1-1.1 1.2-0.1-1.3 1.2z" fill="#939384"/>
  <path fill="#7C7364" d="m103.9 89.1"/>
  <path fill="#BBAE9F" d="m23.4 113.9c0.2 1.5 4.7 1.8 7.7 2l-0.4 0.1c-4.1 0.5-8.3 1.2-7.5-2l0.4-0.3-0.2 0.2z"/>
  <path fill="#8C8E5B" d="m82.1 119.9c-1.1-1-5.4-1.9-5.1-2.3-0.1-0.5-3-1.1-3.4-1l-1.6 0.3c-1-1.2-2.8-1.2-3.6-0.8h-1.2c-1.1-0.5-3.5 0-4.2 0.5-1.1 0.5-2.8 0.4-3.8 0.4l-2.5 1 9.9 3.4 8.1-0.3 7.4-1.1v-0.1z"/>
  <path fill="#DCCEAF" d="m43.1 116.9c0.4-0.9 1.4-0.8 2.9-0.5 5.4 0.1 7.9 2.2 11.4 2.2 6.2 0.4 7.6 0 11.6 1.4 3 0 4.4-0.3 6.5 0.2l6.6-0.2-0.7 4.5-17.4-0.9c-6.8-1.5-13.4-1.4-18.5-3.5-1-0.5-3-2-2.4-3.2z"/>
  <path fill="#CBCBB0" d="m43.5 116.4c-0.5 4.3 7.1 5.1 9.5 5.2l5.5 0.5c-3.9-1.1-7.9-3-9.6-4.7l9.2 1.1 1.8 0.5c1.8 1.5 4.6 4 5 4.4l-0.5 0.1c-4.4-1-11.5-1.4-13.8-3.1-1.7-1.2-4.1-3.5-4.2-3.8-0.3 0.8 2.7 3.5 4.6 4.4-3-0.4-8.5-1.4-8.1-3.9l0.6-0.7z"/>
  <path fill="#DCCEAF" d="m65 120h7.2l9.8 0.6 4 0.4 6.6 0.6 7.3-0.2 6-3.5-4.2-0.9-8.5 1.4-9.1 1.1-8 0.5h-4.4l-5.6-0.5-1.1 0.5z"/>
  <path fill="#CBCBB0" d="m81.4 124.6 8.2-1.7 5.6-0.3 6.2-1.5 3.6-2.1-1.4-0.9-15.1 0.9-8.4 1 4.9 2.4-3.6 2.6v-0.4z"/>
  <path fill="#838659" d="m44.4 119.6c-2.5 0.6-8 3.4-8.2 5.5l0.2 1 1 0.1c0.2-0.2-0.5-1.1-0.3-1.1l3.9-0.1v0.9l1.5 0.1 0.7-1 2-1 3.3 0.1 2.6-0.6 1.4-0.1 0.1-0.9 4.4 1.5 0.9-0.1 0.8-0.2 0.2-0.7h1.2l0.4 0.7v0.5l-0.3 0.2 0.4 0.8h0.8l2.2-1.6c-0.1 0-4.4-0.6-6.6-1.1-8-0.9-10.5-2.5-12.6-2.9z"/>
  <path d="m45.1 124.4c-0.6 1.2-3.4 1-2.7 1.7l3.2-0.5 5 0.6 3.9-2.3-1.3-0.4c-0.8 1.1-3.5 0.4-6.3 0.4l-3 0.5h1.2z" fill="#8A9262"/>
  <path fill="#838659" d="m41.2 126.6 1.7 1.3 3.5-0.8c1.8 0 4.8-0.2 6.7-1.5l1.4-1.6-3 1-5 0.9-1.5 1.1-2.4-0.4h-1.4z"/>
  <path d="m40.2 127.6 0.3 0.8 0.7-0.2-0.3-0.8-0.7 0.2z" fill="#999C68"/>
  <path fill="#838659" d="m53.5 127.6h1.6l0.8-0.6v-0.9l-1.4 0.1-1 0.9v0.5z"/>
  <path fill="#838659" d="m56.1 124.1v0.9l1 1.5 0.9 0.4h0.7l-0.2-0.9-2-1.6-0.4-0.3z"/>
  <polygon fill="#838659" points="54.9 124.1 55.7 125.2 56.2 124.6 55.9 124.6"/>
  <path fill="#8C8070" d="m81.4 124.6 7.5-1.2 4.7-0.5 5.4 0.1-0.9 0.9-4.2 0.1-2.9 0.6h-9.6z"/>
  <path d="m53.4 116 2.5 0.6 1.7-0.5 1-1.5 0.9-0.1 0.6 0.6 0.4-0.6 0.6-0.1 2 0.1 0.3 0.6 0.5-0.6 1.1 1.1h0.5c0.5-0.6 1.5-0.6 1.9 0.1l0.6-0.3 0.4 0.3 1.8 0.2 1.3 0.6c-1.1-0.1-2.6 1.4-3.9 2-3 0.4-2.5-1.4-3.7-2l-1.5 1.1c-1.3 0.5-1.4-0.5-2.7-0.5l-1.8 0.8-2.8 0.2-1.2-1-0.8 0.5-2.5-0.6c-0.1-0.9 1.3-1.1 2.8-1z" fill="#8F9263"/>
  <path fill="none" stroke="#BFBDA3" stroke-width="0.25" stroke-miterlimit="10" d="m52 118.4 2.4 0.2 3.1 2.4m-4-1 2.4 2m3.6-3 4.5 3.9"/>
  <path fill="none" stroke="#BFBDA3" stroke-width="0.25" stroke-miterlimit="10" d="m66 119.5 3.2 2.5-4.7-0.4 5.1 0.3m0.5-1.4c2.1 0.6 5 2 5.9 3.5m-0.4-3c2.3 0.2 4.4 2.4 4.4 2.7l6.5-0.7m-9.8-2.3c1.4 0.2 3.7 1.7 3.7 2.9l2.6-1.2 4.5 1m-5-3 2.5 1.6 4.9-0.4 1.8 0.8m-8.3-1.3c1.1-0.5 5.1-0.6 6.5-0.5l1.8 0.5m-6.3 1.5h5.8l1.4-0.7 3.3 0.2m-7.8-2.6 2 0.6 3.8 0.6 1.3-0.6 3.3 0.3 2.9-0.9h-5.5m-2.9-0.9 2.6 1.4 1.9-1.4 5.6-1-1.4 1.3h3.3"/>
  <path fill="#878856" d="m89.5 124.6h0.9l1.6-1.1 4-0.6 2.2-0.7 0.9 0.2 1.5-0.8 3.3-1.1 1.2-0.9 0.3-1 0.5-2 1.7-0.5-0.7 2.9 1.6 1-1.1 1.4-1.9 0.6-4.2 2.6h-2.3l-2.4-0.6-3.5-0.1c-1.4-0.3-1.5 0.6-3.3 0.7h-0.3z"/>
  <path fill="#DFCCAB" d="m102.6 117.9 3.4-1.9h1.5l0.6 1.1-1.7 1.9h-0.8l-3-1.1z"/>
  <path fill="#93966E" d="m107.4 115.9 1.2 1.1-1.5 2-2.4-0.6-0.6-0.4 1.6-1.4 1.7-0.7z"/>
  <path fill="#838659" d="m107 114h8.1l-0.2 1.6-1.4-0.6c-0.4-0.6-2.6-0.4-3.5-0.1-0.5 3.1-3 0.2-3.5 0.6l0.5-1.5z"/>
  <path fill="#93966E" d="m108.2 108.1 2.9 1.4 1.1 0.4 0.9-0.2 0.5 0.3 0.8 1.1c1.5 1.4 4.6 1 4.6 1 0.4 0.8-2.5 2-4.4 2l-8.6-0.1 2.2-5.9z"/>
  <path fill="#93966E" d="m117.6 110.6 1.9 1.3-0.5 0.6c0.9-0.8 0.6-1.5-0.9-1.9h-0.5z"/>
  <path fill="#93966E" d="m110.5 106.2 1.4-0.1-0.3 0.3-0.7 0.1-0.4-0.1v-0.2z"/>
  <path fill="#7C7364" d="m103.7 89.4"/>
  <path d="m103.9 89.1" fill="#84837C"/>
  <path d="m104 89.4" fill="#90857A"/>
  <path fill="#7C7364" d="m103.9 89.4"/>
  <path fill="#A8A39A" d="m112.7 95.5-0.2 0.2 0.2 0.2h-0.1l0.1 0.1v-0.4-0.1z"/>
  <path fill="#7C7364" d="m104 89.4"/>
  <path d="m104.1 89.4" fill="#847D70"/>
  <path fill="#7C7364" d="m103.9 89.1"/>
  <path fill="#838659" d="m80.6 97-0.6 0.6c-1.6 0.4 0-1.1 0.4-1.1l0.2 0.5z"/>
  <path fill="#939560" d="m76.6 97.2-0.6 0.4-1.5 1.4 0.6 0.2c0.9-0.2 2.4-2 1.5-2z"/>
  <path d="m102.7 124.4 1 0.5c1.7 1.1 4.2 2.1 4.4-0.4l1.5-0.9-2.5-1.5-2.5 0.5-1.9 1.8z" fill="#888E59"/>
  <path fill="#8C8E5B" d="m102.5 124.5h6l0.1 0.2-2.1 0.8-4-0.6v-0.4z"/>
  <path d="m104.5 97.1-1-0.1 0.6 0.7-0.1 0.8-1.5 1.4-2.4 0.6-1.7 0.7c-1.4 0-2.5 2.8-3.5 2.3l-1-0.8 3-1.7-1.4-1-0.8 0.5-1.2-0.6c-4 0.5-5.6-1.8-8.4-1.8l-0.7 0.8c-0.5 0.1-2.8-0.4-2.9-1.5l0.1 0.1 0.5-0.5v-0.4l0.8-0.5-0.9-0.4-0.6-1.1-7.5-0.6-0.3 0.4c0.8 0.6 3.4 0.2 3.3 0.8l0.1 1v0.2c0.4 1.3 2.2-0.4 2.2 0 0.3-1.4-0.5-1.4-1.6-0.7l-0.6-0.7h0.1 0.1l16.7-3.3c4.7 0.7 11.1 3.7 11.7 6.3 0.4 1-0.2 1.9-1.6 3.1l-1.9-0.1 0.4 2-3 2.1c-1.5-0.2-3.6-1.6-1.9-2.7l1-1.4h2.4c0.5-0.1 1.4 1.2 1.9 1.1l1.2-1.5 0.1-0.2 1.4 0.2 0.9 0.9c1.2 0.1 1.1-0.9 0.1-2.5l-2.1-1.9z" fill="#89975D"/>
  <path fill="#70675B" d="m96.9 97.7 1 0.3-0.3 0.2-1 0.4-0.4 0.5 1.5 0.6 0.7-0.2v1.6l0.5-0.2-0.7-0.9 1.9-0.1v1.1l1.6-0.1c1.8 0.2 2.3-1.2 1.9-1.8l-1.1-0.1-1.9 1-0.6-0.6c2-1 0.5-2 0-2l-3.1 0.3z"/>
  <path fill="#939560" d="m84.6 101.5-0.7 0.5 0.3 1 1.7 0.1 3.8-0.7h1.4v-0.9l-0.6-0.5h-0.8l-2.7 0.9-2.4-0.4z"/>
  <path fill="#70675B" d="m85.6 96.4 1-0.4-0.7 1.4 1.3 0.2-2.2 0.3 0.6-0.8v-0.7z"/>
  <polygon fill="#A7A39C" points="80.9 95.4 81.5 95.9 81.4 95.5"/>
  <path fill="#93966E" d="m103.9 89.1"/>
  <path fill="#8E877E" d="m104 89.4"/>
  <path fill="#AEA997" d="m109 120.9-0.1 0.1 0.5-0.5-1-0.3 0.6 0.7z"/>
  <path fill="#93966E" d="m104.9 122 4.2-1-1 0.9-2.6 0.2-0.6-0.1z"/>
  <path fill="#93966E" d="m107.4 119.1 0.5 1 0.7-1.1-0.2 1.1-0.5 0.8 0.7-0.4-1.1 0.9-0.1-2.3z"/>
  <path d="m112.6 93.5 2.6 0.4-0.7-0.4h-1.9z" fill="#B19C82"/>
  <path fill="#7C7364" d="m103.9 89.1"/>
  <path fill="#BBAE9F" d="m37.1 125.2 2.3 0.8h-3.3l-0.2-1 1.2 0.2z"/>
  <path fill="#939088" d="m103.9 89.4"/>
  <path fill="#BCB9B5" d="m103.9 89.4"/>
  <path fill="#7C7364" d="m103.9 89.4"/>
  <path d="m104 89.4" fill="#898579"/>
  <path d="m104.1 89.4" fill="#9B9484"/>
  <path fill="#8F8B88" d="m103.9 89.4"/>
  <path d="m104.1 89.4" fill="#8A857C"/>
  <path fill="#8C8677" d="m104 89.4"/>
  <path fill="#6D685B" d="m104.1 89.4"/>
  <path d="m102.9 90.1" fill="#928B7F"/>
  <path fill="#8E8A83" d="m104.1 89.4"/>
  <path d="m104.1 89.4" fill="#A1978A"/>
  <path fill="#91918A" d="m104.1 89.4"/>
  <path fill="#7C7364" d="m104.2 89.1"/>
  <path fill="#B2ACA4" d="m104.4 89.1"/>
  <path fill="#94948D" d="m104.5 89.1"/>
  <path fill="#898784" d="m104.4 89.1"/>
  <path fill="#8C8984" d="m104.4 89.4"/>
  <path fill="#8A8883" d="m104.4 89.4"/>
  <path d="m103.9 89.4" fill="#686661"/>
  <path fill="#8C8986" d="m104.4 89.4"/>
  <path d="m104.4 89.4" fill="#7B7B76"/>
  <path fill="#8F8F88" d="m104.4 89.4"/>
  <path d="m104 89.4" fill="#4F4E46"/>
  <path d="m104.2 89.1" fill="#656259"/>
  <path fill="#DBCFC1" d="m105.6 115.9 0.5-0.8 0.3 0.3-0.5 0.3-0.3 0.2z"/>
  <path fill="#91908B" d="m106 115.7"/>
  <path fill="#8B887D" d="m106.5 115.5"/>
  <path fill="#908F89" d="m106 115.7"/>
  <path fill="#8F9085" d="m106 115.7"/>
  <path fill="#756B5B" d="m104.6 89.4-0.5 0.2 0.1-0.2h0.4z"/>
  <path d="m104 89.4" fill="#8B887D"/>
  <path d="m104.1 89.4" fill="#928D80"/>
  <path fill="#979376" d="m103.9 89.4"/>
  <path fill="#959569" d="m104 89.4"/>
</svg>