<svg xmlns="http://www.w3.org/2000/svg" viewBox="0 -40.65 144 144">
<!-- SVG created with Arrow, by QuiverAI (https://quiver.ai) -->
  <path fill="#C8CAC7" d="m66.5 23c4.6-4.6 12.8-9.8 23.6-12.7 6.1-2.4 18.9-3.3 26.5-0.7 8.4 2.4 15.8 8.3 18.9 18.4 2.9 8.9 1.1 15.9-6.5 19-6.2 3-18.4 3.5-27.5 3.5-10.1 0-22.4-1.5-27.8-3.7l-7.2-23.8z"/>
  <path fill="none" stroke="#908B80" stroke-width="0.75" stroke-miterlimit="10" d="m66.5 23c4.6-4.6 12.8-9.7 23.6-12.7 6.1-1.7 15.5-3.2 23.9-1.4 8.5 1.8 18.1 7.7 21.5 19.1 2.6 8.3 1.1 15.9-6.5 18.9-5.2 2.6-16.7 3.6-27.5 3.5-9.3 0-21.5-1.2-27.8-3.5l-7.2-23.9z"/>
  <path opacity="0.1" fill="#051A0D" enable-background="new" d="m71.6 19-4.9 4.1 6.7 23.9c3.3 0.9 5.8 1.4 8.1 1.3 3.4-3 4.7-9.4 2.2-15.8-1.6-4.4-6.6-10.9-12.1-13.5z"/>
  <path fill="#FFFFFF" fill-opacity="0.2" d="m72.2 19.4c9.4-6.4 23.9-11 34-10.4 6.9 0.3 12.7 2.3 11.9 3.9-0.2 0.7-2.5 0-4.2-0.2-8.8-0.9-22.4 0.9-37.5 9.4l-4.2-2.7z"/>
  <path opacity="0.1" fill="#051A0D" enable-background="new" d="m78.2 39.5 1.7 7.4 1.8 1.1c7 1.4 14.5 2.5 22.7 2.5 9.1 0 19.7-0.8 24.7-3 5.5-2.2 8.7-8.1 6-16.8l-1.6-6.3c-0.5 9.2-5.9 18.4-28.4 19.9-5.7 0-15.1-1.1-26.9-4.8z"/>
  <path fill="#CBC3B8" d="m47.6 14c-16.7 0.8-35.6 9.9-39.5 21.5-1.6 5.3 0.5 9.8 5.9 12.3 7 3.4 15.3 5 32 4.6 17.2-0.4 32.5-1.2 32.3-14.5-0.6-8.7-8.5-24.5-30.7-23.9z"/>
  <path fill="none" stroke="#90897E" stroke-width="0.75" stroke-linecap="round" d="m47.6 14c-16.2 0.8-35.6 9.8-39.5 21.5-1.7 5 0.5 9.8 5.9 12 8 3.8 18.4 5.3 34.7 4.9 15.5-0.4 29.9-1.1 29.6-14.5-0.6-8.7-8.5-24.5-30.7-23.9z"/>
  <path fill="#ADA79C" d="m7.8 39.5c0.3 7.5 9.2 12.9 32.1 13 23.3 0 39-0.5 38.4-14.6l-1.8-7.5c0 8.8-8.5 16.6-27.4 16.6-14.5 0-30.8-3.6-41.3-7.5z"/>
  <path d="m13.1 35.4c-1.6 0.9-2.9-0.2-1.2-2.7 5.6-8.6 21.8-16.8 36.8-17.5 8.4-0.2 12.8 1.9 12.1 3.1-0.5 0.6-2.1 0.2-3.8 0.1-6-0.1-11.9 0.5-18.6 2.7-9.1 2.8-18.3 8.1-25.3 14.3z" fill="#FFFDF8" opacity=".2"/>
</svg>