<svg xmlns="http://www.w3.org/2000/svg" viewBox="0 0 150 150">
<!-- SVG created with Arrow, by QuiverAI (https://quiver.ai) -->
  <radialGradient id="SVGID_1_" cx="75.7" cy="75.15" r="70" gradientTransform="matrix(1 0 0 -1 0 150)" gradientUnits="userSpaceOnUse">
    <stop stop-color="#EDCB9B" stop-opacity="0.95" offset="0"/>
    <stop stop-color="#EDCB9B" stop-opacity="0" offset="1"/>
  </radialGradient>
  <circle fill="url(#SVGID_1_)" cx="75.7" cy="74.8" r="51.4"/>
  <path fill="#6D6E74" d="m35.3 125.3c-0.9 1.3-6.2 11.2 7.7 15.9 4.5 1.6 12 1.6 31 2 10 0.3 20.3 0.7 28-1.3 12.6-3.2 14.9-9.8 14.6-11.9l-81.3-4.7z"/>
  <path fill="#636468" d="m41.6 108.9c-0.1 1.7 3.3 5.3 5.3 6.9s13.1 1.4 27.1 1.2 26.7 1.2 30.6-1c3.1-1.8 5-7.5 3.7-8h-65.7l-1 0.9z"/>
  <path fill="#808184" d="m43 104.3-2.1 2.3c-0.4 1.1 0.5 2.6 0.6 3.9 1.1 0.5 3.5 1.9 7.5 1.9 8.1 0 15.5-4.5 24.5-4.7s15.4 3.9 24.6 5.2c4.9 0 6.9-0.3 9.2-1.1 1.1-0.3 2.8-5.9 1.1-8.9l-65.4 1.4z"/>
  <path fill="#808184" d="m53.2 92.4c-4 1.1-11.2 3.9-12.5 10.8-0.1 1.2 8.9 3.9 13.8 4 3.9 0 9-3.8 17-4s14.5 4.5 24.5 6.6c3 0.2 10.2-0.6 11.4-1.8 1.2-0.1 0.4-6.4-0.5-10.1l-13.8-6.8-39.9 1.3z"/>
  <path fill="#797876" d="m52.9 92.3c4.6 1.6 11.1 2.2 20.1 1.8l16-1.8 6-0.7c1 0.1 5.8-0.9 7.5-4.1l0.2-3.9-57.4 2.5c0.4 2.6 1.7 2.9 4.7 4.8l2.9 1.4z"/>
  <path fill="#646466" d="m45.3 86v0.3c0.6 0.9 7.3 2.4 15.7 2.2s41.5-1.5 41.7-2c0.7-0.6 0.2-3-0.2-3.5l-40.5-3c-5-2.5-16.7 0.9-16.7 6z"/>
  <path fill="#A49C97" d="m60.5 78.5c-3.7 1.5-8.7 3.6-8.1 5.8 0.8 2.8 7.5 3.3 12 2.9 7-0.4 11.5-1.6 16.7-2.4 9.5-1.3 18.4-1.7 21.4-1.7 0.6-1-1.3-2.4-5.5-4.1l-5-2-21.5 1.9-10-0.4z"/>
  <path fill="#888886" d="m54 75.5c2.6 2.2 5.6 3.3 12 3.6l13.6-0.1 12.4-2c2.6-1.1 5.2-2.5 5.1-3.3v-1l-13.1-2.6-23 1-7 4.4z"/>
  <linearGradient id="SVGID_00000168098116095645154910000007339042362866796124_" x1="51.41" x2="96.9" y1="79.6" y2="79.6" gradientTransform="matrix(1 0 0 -1 0 150)" gradientUnits="userSpaceOnUse">
    <stop stop-color="#958A7D" offset="0"/>
    <stop stop-color="#9F9588" offset="1"/>
  </linearGradient>
  <path d="m58 62.1c-2 0.8-4.5 2.4-5.3 3.6-2.2 2.9-1.1 8.4 1.6 9.8 3.6 0.6 8.8 1 14.7-0.5 6.1-1.6 9.5-3.5 19-3.9 5.1-0.1 6.6 0.3 8.7 1.3 0.4-3.8-1-5.9-4.2-7.8-1.9-1.1-3.9-2-5.9-2.2l-13.6-1.5-13.5 0.6-1.5 0.6z" fill="url(#SVGID_00000168098116095645154910000007339042362866796124_)"/>
  <path fill="#ADA7A1" d="m55.6 56.6c0 1.6 1.6 3.4 4.4 4.8l15 1c2.6 0.6 9.7 0.6 12-0.4s8-3.5 8-10.4c-1.9 1.4-5.2 2.9-9 3.4h-17l-11 1.9-2.4-0.3z"/>
  <path fill="#A49C97" d="m63.1 50.5c-2.6 0.4-7.7 3.4-7.5 6.1 1 0.9 4.5 0 9.4-0.5 4-0.4 9.5-0.5 12-0.6 3.3-0.1 8.6-1.4 11.4-4.9l-5.4-4-15 2-4.9 1.9z"/>
  <path fill="#ACA69C" d="m68 49.5-0.9 0.6 0.9 0.4c2.6 0 8.8 0.1 10.5-0.5 1.2-0.4 9.8-2.3 10.7-2.8 0.2-0.2-2.1-0.8-3.6-0.8l-6.1 0.6-8.4 0.6-3.1 1.9z"/>
  <path fill="#71665A" d="m64.5 38.6c-1-0.1-5.8 0.7-7.4 3-0.6 1.1-1.5 5.9 2.9 7.3 2.6 1.1 3.9 1.6 8.6 1.5 7.4-0.3 13.5-2 15.5-2.8 2-0.7 4.5-2 4.6-4.7 0-1-0.7-1.3-1.1-1.4l-5.1-2.9-16.4-0.2-1.6 0.2z"/>
  <path fill="#8D8F66" d="m56.3 43.5v1c0.7-0.1 3.3-2.3 4.3-2.1 0.9 0.2 0.4 1.2 1.9 0 0.4-0.3 0.1-0.9 1.5-0.9 1 0 2-1 2.6-0.5 0.3 0.1 1.5-1.3 2.1-1.4l-4.8-1.1-3.3 0.5c-1.5 0.4-4.1 1.6-4.1 3.5l-0.2 1z"/>
  <path fill="#908E8B" d="m65.4 27.2c-3.3 0.9-10.3 3.3-10.3 6.4l20.9 1.4 8-1.6 7.2 1.1c0-2.9-3.2-4.5-6.5-6.5l-10.3-1.6-9 0.8z"/>
  <path fill="#646466" d="m55.1 33.6c0 0.8 0.3 1.4 1.4 2.4s2.4 2.1 3.5 2.5c1 0.2 2.1 0.5 4.6 0.5h17.9l5.5-1.5c1.6-0.5 3.4-1.6 3.4-3.4l-5.4-3.6-12 0.9-18.9 2.2z"/>
  <path fill="#82817F" d="m60.6 23.4c-0.2-1.9 1.4-3.3 5.9-5.4l6.5-0.5c2.9-0.3 7-0.4 9 0.5 2.5 0.5 6 2.1 6.1 4.6 0 3-4.1 3-5.6 3l-10.5-1.1-9.5-1.4-1.9 0.3z"/>
  <path fill="#646466" d="m60.6 23.4c0 2 3.4 3.6 7.4 4.6 4.5 1 7.4 1.5 12.1 1 5.9-0.5 7.8-1.6 7.8-5.4l-3.3 0.5c-1.6 0-3.7 1.3-6.6 0.9-4.4-0.6-14.5-2.5-17.4-1.6z"/>
  <path d="m62.9 14.6c-0.3-1.5 2.1-3.1 4.1-3.9 2-0.7 5.4-2.6 7-3 4.1-1.3 6.5-1.6 7.2-0.3 0.8 1.2-0.2 2-1.1 3l-6.1 5.6c-3.3 1.5-6 2.9-8 1.9-1.4-0.9-3-1.9-3.1-2.9v-0.4z" fill="#838383"/>
  <path fill="#888888" d="m62.9 14.5c3.2 0.9 6.7 0.5 10.1-0.5 3.9-1.1 9-3.6 8.5-6l-9.9 2c-3.6 1.6-8.7 3.1-8.7 4.5z"/>
  <path fill="#646466" d="m69.4 19c1.5 0.1 4.2 0.5 7 0 6-1.1 7.2-5.4 7.1-6.4l-5.5-1-5 5.4-0.6 2.1-3-0.1z"/>
  <path d="m66.4 18c1 0.4 1.7 0.7 3.6 1l1.5-1.5-2.5-0.5-2.6 1z" fill="#828282"/>
  <path fill="#646466" d="m74 7.9c1.9-0.8 6.4-2.3 7.1-0.9 0.5 0.4 0.3 1.9 0.4 2l0.5 0.5c0.4-1.4-0.4-3.1-3-2.9-1.9 0.1-4.9 0.9-6 1.4l1-0.1z"/>
  <path d="m72.4 17.4c1-0.4 3.5-1.8 3.6-1.9l3-2.9c1.1-1.1 2-2.2 3-3 1 0 1.6 1.3 1.7 1.4 0 3.1-3.3 7.4-11.1 8l-0.2-1.6z" fill="#5F6062"/>
  <path fill="#8D8D8C" d="m66.5 17.9s2.6-1 3.1-0.9c0.5 0 1.4 0.6 1.4 0.6s-2.4 0.3-3 0.3h-1.5z"/>
  <path fill="#636468" d="m34.1 127.5c-0.7 2.4 0.9 3.6 0.8 5.9 0 0.7 4.6 2.6 12.1 0.5 5.6-1.3 12-3.9 18.6-4.9 9-1 12.3 1.5 17.4 0.9 4.9-0.4 12.5 3.5 22.9 4.2 4 0.3 8.5-1.2 8.7-1.7l1.5-3.4 0.5-2.4-0.7-2.2h-43.3l-27.6 0.6-9 0.4-0.9 0.1-1 2z"/>
  <path fill="#82817F" d="m113.5 128.9c1.5 0 2.5-1.4 2-1.4h0.5c-0.1 1.4-2.5 1.4-2.5 1.4z"/>
  <path fill="#646466" d="m81.1 18"/>
  <path fill="#898173" d="m56.5 56.9c1.1 0.6 3.4 0 7.1-1.4 3.9-1.4 7-1.6 12.9-1.9 3.1-0.1 7.5-1.2 10-3.2l2 0.2c1 0 3 0.4 4.5-0.4 0.5-0.1 1 1.4 1 2.3-1.6 1-5.5 2.9-10 3.5-3 0.4-6.4-0.6-9-0.4-3.4 0.4-5.3 1.8-7 2.8-2 1.1-5.1 2.7-8.1 3.1-1.8-0.9-4.4-3-3.4-4.6z"/>
  <path fill="#8F897C" d="m82.5 24.9c1.5-0.3 5-1.4 5.1-1v0.1l-2.1 0.5c-0.9 0-4.4 0.9-3 0.4z"/>
  <path d="m78 25c1.4 0.4 3 0.4 7-0.1 1 0.1 1.6-0.4 2.6-0.9 0-0.4-1.7 0.6-3 0.6-2.6-0.1-2 0.4-6.6 0.4z" fill="#717172"/>
  <path fill="#888886" d="m62.6 38.4c5 0.5 12.4 0.6 12.8 0.1s5.7 0.1 7.6 0.2c2-0.3 6.5-1.3 6.9-2.2 0.6-0.5 1.5-1.5 0.6-1.5-0.5 0.4-5-0.3-7.5-0.6-6.9-0.8-14 2.2-19 2.3-3.9 0.2-8-1.1-8.9-3.1 0 1.8 3.9 4.8 5 4.8h2.5z"/>
  <path fill="#8C8B5C" d="m65.5 30.4"/>
  <path fill="#9FA070" d="m66.1 30.1 2.9-0.7 1.5 0.6-0.5 0.4-1.6-0.3-1 1.3-1.3-1v-0.3zm1.8 0c0.2 0.5 1.1 1.3 2.5 0.5l-1-0.7-1.5 0.2zm3.5 0.5 0.5 0.8h0.7l0.4-0.5-0.6-0.4-1 0.1zm-2.4-3c0.6 0.9 0.6 0.5 4.1 1 0.4-0.1-2.6-1.7-3.7-1.2l0.2 0.2h-0.6z"/>
  <path fill="#8E9160" d="m65.5 49.9c-0.4 0.6 0 1.2 4.4 0.5l0.1-0.8c-1.5-0.6-3.5-0.5-4.5 0.3zm8-10.4c-0.5 0.4 0 0.6 0.5 0.9l1.9-0.3c0.7 0 0.2 0.4 1.1 0.3 1-0.3 1.4 0 1.5-0.3 0.5-0.6-0.6-1-1.5-1h-3l-0.5 0.4zm-0.1 1.6c-0.4 0.8 0.6 0.9 0.2-0.1l-0.2 0.1z"/>
  <path fill="#838557" d="m73.6 79.6 3.3-1.7c0.7-0.3 1 0.2 1.7 0.1 1.4 0 2.4-0.6 3.9-0.9l5.1-0.2c3.4-0.4 5.4 1 8.5 0l1.5 0.7 0.1 0.3c0.9 0 1.3 0.6 1.3 0.7 0.5 0.4 0.5-0.1 1-0.1 1 0 1.6 1.6 2 2.6 0 0.4-1.4 0.3-2.9-1.1-0.6 0.6-1.5 1.5-2.1 1.1-2.5 0-3.4-1.1-5-1.1-0.5 0-1 0.6-1.6 0.5l-3.8-1-4.2 0.1-6-1-2.4 1.5-0.4-0.5z"/>
  <path fill="#9EA070" d="m66.9 78.1c-0.9 0.5 0.5 0.9 0.6 1.5l0.1 0.5 2.9-0.1 0.1-1.6-0.6-0.4-2-0.1-1.1 0.2z"/>
  <path fill="#8F9360" d="m75 79.5 0.5 0.6 1.9 0.3 0.7-0.3 1 1.5c0.5 0.8 0.9 0.4 0.9-0.2l2-0.4 2.1 0.6 1.4-0.2 1 0.2 1.1-0.2 1 0.5 1.5-0.3c0.3 0.4 1.3 0.5 2.5 0 0.9 0 0.9 0.4 1.9 0.3 1.1-0.5-1-0.3-1.5-0.9l-1.5-0.6-1.4 0.2-1.5-0.5v0.4l-1-0.5-1.5-0.4h-4.5l-4.2-1h-1.4l-1 0.9zm14.4 3.1c-0.4 0.9 2 0.5 1.2 0h-1.2z"/>
  <path fill="#909461" d="m74.5 99 2-1.9c1.1-0.1 0 2.5-1.5 2.3l-0.5-0.4zm2.6-4c-0.7 1.5 0.3 2.4 2 1.5 0.5-0.1 0.3-0.9-0.1-1.1l-1.5 0.2 0.1-0.6h-0.5zm1.9 2.4c0.1 1.1 2.1 0 1.5-0.5l-1.5 0.5zm5.4 4.2-0.3 1c0.9 1 4.4 0.4 5.9-0.1 0.5 0 1.1 0.1 1.1-0.9l-1.1-0.6c-1.5 0-1.9 1-3.4 0.6l-1.7-0.2-0.5 0.2z"/>
  <path fill="#838557" d="m73.6 94.1c1.4 0.9 5.4 0.4 7.9 0.8 0.5 1.1 1.5 1.1 1.1 1.5l-1 1.6 2.5 1 1.5-1.1-0.2-1.4 1.1-0.6 0.1 0.1-1.2 1.9 5.5 1.7 3.1 0.3 1 0.6 1.6-0.1 0.3 0.6-2.9 1.6 0.6 0.9 1 0.1 2-2 1.4-0.5v0.3c-2.6 1.5-2 2.6 0.5 3.7l1.4-0.6 1.2-0.9-0.1-1.1-0.9-1.1 1.9 0.5 1.1-1.3v-0.5l0.5 0.4 1.9 1.1 0.4-0.2 0.1-0.5-0.1-2.5s-5.9-5.8-12.9-6.5c-4.6 1.1-11.1 1.5-15 1.7l-5.4 0.5z"/>
  <path fill="#8F9360" d="m97 97.6 1 0.8-1.5 0.2-0.4 0.5 1.9 0.8v0.6c1 1.1 1 0.5 0.9 0.5h0.1 3.5c0.5-0.5 2-1.4 1.5-1.4l-1.9-0.5c-1 1.3-2 0.5-2.1 0.4l-0.9 0.4-0.6-0.9c0-1.1-1.4-0.5-0.4-1 0.9-0.1 0.8-0.5-1.1-0.4z"/>
  <path fill="#797876" d="m97.9 97.4h2l1.1 0.7-1 1.4 1 0.1 1.1-0.2-0.1-0.8c0.6-0.6 1.5-0.2 1.4-1l-0.8-1c1.5 0 1.4 1.8 1.4 2.4 0.4 0.5 0.6 0 0-1.1v-0.8l-2-1.6-3.4 1-1.6 0.9h0.9z"/>
  <path fill="#838557" d="m103 96.9 1 1-0.1 1.1-0.8 0.1 3 2.5 0.8-0.1h0.1v0.1-0.1-0.5l-0.1-3.6-1.9-1.3-2 0.8z"/>
  <path fill="#BAB4AC" d="m44.6 116.4c-3 0-1.6 2.6 0.9 3.7l6.6 1.5 4.4 0.4 4.5 0.6 7 0.9 7.6 1 4.9 0.1 6.5-1 8.9-1 5.6-1.5 3.9-1.6 1.1-1.4-3.5-1.1-3.5 0.6-4 0.9-8 0.9-4.5 0.1h-15l-7.1-0.5-8.4-1.6-7.9-1z"/>
  <path fill="#CAC4AA" d="m44.6 116.4c0.8 1.5 4.4 4.5 7.5 5.2 3.3 0.8 7.4 1.3 8.3 0.9l0.6-0.5-6-2-4-2-6.4-1.6z"/>
  <path fill="#9FA070" d="m36.1 125.5c1.9-3.5 6-4.9 8.3-6 1.6 1 4.2 1.5 6.6 2h2.1l2 1 1.8 0.5 2.1-0.1-0.4 0.7-1.1 0.3-2.5-0.4-2.5-0.1-2 0.2h-4.6l-2.4 0.5 0.5 0.4h0.5l0.5 0.5c-1.4 0.5-2 1.1-4 1.1v-2.1l-2.5 1c-1 0-2 1.4-2.5 0.9l0.1-0.4zm4.5 1.1 1.5 0.8 0.5 0.6 1.4-0.1 2.4-0.9 2.6-0.1 4.1-1 0.5-0.9h-2.1l-4.5 0.5-2.6 1.5c-0.8 0-1.4-1.1-3.5-0.4h-0.3zm-0.2 0.9c-0.9 1 0.7 1.4 0.7 0.5l-0.7-0.5z"/>
  <path fill="#8E9160" d="m36 126c1 0.4 2.1 0 2.1-0.5-1.1 0.1-1.7-0.4-2.1 0.5zm17.5 1.5c0.9 1 3.5-1 2.1-1.4l-1.6 0.5-0.5 0.9zm2.6-3.1 0.5 1.6c1.5 1.5 3.3 0.5 1.4-0.5l-1.5-1.1h-0.4z"/>
  <path fill="#9EA070" d="m50.6 116.4 0.4 0.6 3 0.4c1 0 3.1 1.6 5.1 1.1 1 0 0.8 0.5 3.5 0.5h2.9l3.9 0.9 2.6 0.1 2-0.1 1.5 0.2 6.5-0.2-2.9-1.4-2-0.6-0.5-0.8-2.1-0.5c-1.4-0.2-2.5 0.4-1.9 0-1.5-1.2-4.1-1-4.5-1.2h-6l-2.7-0.3-2.3 1c-0.5 0.4-1.6 0.5-2.6 0.3l-1.9-0.3-1.7 0.3h-0.3z"/>
  <path fill="#9FA070" d="m54 117.1c1.5 0.9 2.5 1 4.6 1 1.3 0 1.5 0.9 2.9 0.8 1.9 0 3.5-0.5 5.5 0.1 2.9 1 4 1.1 6.1 0.9 0.9-0.2 2.4 0.5 2.4 0.5l4.5-0.4c2.5 0 2.1 0 1.6-0.6l-2.2-0.9-2.3-0.6c0-0.5-0.7-0.9-1.6-1-0.5-0.3-1.9-0.5-3 0-1.4-0.4-4 2-6 1.6-2.6-0.6-1.5-2-2.6-2-0.5 0-1.4 1.5-2.9 1-1.6-0.6-1.5-0.4-3 0l-2 0.5c-0.5 0-1-1.1-2-0.9z"/>
  <path fill="#8F9360" d="m59.1 114.4c-1.2 0.5-0.6 2.1-3.2 2.1-0.5 0-3.5-1-5.3 0l0.5 0.5 3.9 0.6c1.5-1.1 4.4-0.5 5.6-0.5l2.9-0.1 1.5-0.9 2.4 0.4 1.1 0.4 2.6-0.8c0.4 0.3 0.9 0.4 0.9 0.3 0-0.5-3.6-1.5-4-1-0.5 0.6-0.9-0.4-2-0.4 0 1-1.1 1-1.5 0.4l-0.6-0.8-0.9 0.4-0.5-0.6c-0.6 0.5-2-0.5-2.5 1l-0.9-1z"/>
  <path fill="#9FA070" d="m51.6 123.6 0.5 0.3h-1.1l0.5 0.1 0.6-0.1 0.3 0.2 0.1-0.2v0.2l-0.4 0.3 0.4 0.1 0.4-0.5 0.5 0.4-0.9 0.6h-0.1c1 0 1.2-0.6 1.5-0.4l0.6 0.8c0.9-0.3-0.5-1.3-1-1.8l-0.5-0.6-1.4 0.6zm1.8-0.6 0.6 0.6 2.5 0.4-0.6 0.1-0.4 0.3 1 0.1-1.1 0.6 0.1 0.3 1-0.4 0.1 0.1-0.7 0.4c1 0 0.7-1 1-1l0.1 0.5c0.5-0.9-2-1.6-3.6-2z"/>
  <path fill="#9FA070" d="m60 123.1 0.5 0.5-0.1 1.4 1.6 0.1 0.4-0.6-0.9-0.1v-0.4h1v0.1c0.4 0.3 1-0.5 1.5-0.6l-2.9-0.4-1.1-0.1v0.1zm1.1 0.8 1-0.3 0.8 0.3h-1.8z"/>
  <path fill="#CAC4AA" d="m46.4 116.5c2.7 3 6 5.1 12.6 6l-3.9-1.4-4.6-2.1-4.1-2.5z"/>
  <path fill="#9EA070" d="m97.1 122.1 2-0.1 1-0.4 1-0.6 2.9-1 2.4-1.5 0.7 0.5-0.1 1.6-3.9 2.9-2 1-4-0.6h-5l5-1.8z"/>
  <path fill="#9FA070" d="m102.1 124.4 1.9 1.1 1.1 0.6 1.9-0.1c1.1 0 1.1-0.6 1.1-0.6l0.4-1.3 0.9-0.1c1-0.6 0-1.1-0.5-1.1l-0.9-0.5c-0.9-0.4-1 0.5-1.9 0-1.5-0.4-3.1 1.7-3.6 2h-0.4zm0-6.9 1 1 2.3 0.4h1l0.7-0.5 0.4-0.4 0.5-1c0.4-0.9-0.5-0.9-1-0.9-1-0.1-2.5 1.9-4.9 1.4z"/>
  <path fill="#8E9160" d="m107 116c0.5-0.5 1 0 1 0.1l-0.5 0.3-0.4 0.1-0.1-0.5z"/>
  <path fill="#8F9360" d="m106.1 119c-1.1 1-2.1 1.9-4.6 2.5l0.6 0.1-1-0.1c-0.6 1.1-2 0.4-2.1 1.1h-2c0.6 0.5 2.4-0.2 2.4-0.1l1.1-0.5c0.5 0.5 1.5-0.5 1.5-0.5l1.1-0.5 1.9-1 1.1-1z"/>
  <path fill="#9FA070" d="m107.1 118.9c0.5 0.5 1.9 2 0.5 2.6h0.9l0.6-0.6h-0.6l0.1-0.5v-0.4l1 0.4-0.6-1-0.5-0.5h-1.4z"/>
  <path fill="#8F9360" d="m108.1 120.9-0.5 0.7 0.5-0.1v-0.4l0.9-0.5-0.9 0.3z"/>
  <path fill="#CCCCAE" d="m52.1 117.4 6 1.6 1.9-0.1 4.5 3.6h-3.5l-6.5-1.5-3.6-2-1.9-1.6h3.1zm7.9 1.5 4 0.5 2.5 0.6 1.5 1.5h-3.5c-0.4 0.4 2 0.4 4.5 0.5l2.1 1 0.9 0.9 3.5 0.5 0.5-0.4-1.4-1.5-4.5-2.1-4.6-0.9h-4l-1.5-0.6zm10.5 1.5 5 2.1 1.1 1.5 3.4 0.5c0.1-0.5-4.5-3.5-7.4-4l-2.1-0.1zm3.5 0.2 5.1 1.4 1.4 1.1 0.5 0.3 5.1-0.4-7.1-2.4h-5zm7.5-0.2 3.5 1.6 3.1-0.5h3.4l-4.6-1.4-4.4 0.3h-1zm5.6-0.9 5.9 2 3 0.1-5.5-1.6-2.9-0.5h-0.5zm5.9 0 3.5 0.5h3.1c-1.5-0.6-3.5-1.6-6.6-0.5zm4.1-1.1 1.9 1.1h4.6l-3.6-1.1h-2.9zm4.9-1 2.6 0.7 0.4-0.7h-3z"/>
  <path fill="#8E9160" d="m91.5 123.5-1.1 0.4 0.1 0.2 1.9-0.5-0.9-0.1z"/>
  <path fill="#8F9360" d="m90.5 124-0.5 0.4 1 0.1 1.1-0.9-0.6-0.1-0.5 0.6-0.5-0.1zm17.6-3.4 1.4-0.1v-0.1"/>
  <path fill="#8F9360" d="m108 120.5c0.5-0.4 1-0.6 0.6 0l0.4-0.1 0.5-0.3v0.4l-1.4 0.1-0.1-0.1z"/>
  <path fill="#8F9360" d="m107.4 121.5 0.1 0.1v-0.1h-0.1z"/>
  <path fill="#8F9360" d="m106.9 121.4 1 0.1h-0.5l-0.4 0.1-0.1-0.2m0.2-0.3 0.5 0.3h-0.7l0.2-0.3z"/>
  <path fill="#8F9360" d="m107.5 121.1v0.3h0.1v-0.3h-0.1z"/>
  <path fill="#9FA070" d="m107 119.5h1.1v-0.5h-0.6l-0.5 0.5z"/>
  <path fill="#9FA070" d="m107.4 119.4 0.7 0.1-0.1-0.6-0.6 0.5z"/>
  <path fill="none" stroke="#F5F3EB" stroke-width="3.6628" stroke-miterlimit="10" d="m62 140 4-4.5-3-1.5 2-3-3-1.6 4-5.5"/>
  <path fill="none" stroke="#F5F3EB" stroke-width="3.6628" stroke-miterlimit="10" d="m76 141 3.4-4.5-3.4-1 2-4-3-1 3-6.4m10.4 15.5 1.7-5.2-3.1 0.1 1.5-4.5-2.5-1 2.4-5.5"/>
</svg>