<svg xmlns="http://www.w3.org/2000/svg" viewBox="0 0 150 150">
<!-- SVG created with Arrow, by QuiverAI (https://quiver.ai) -->
  <path fill="#96979A" d="m35.4 125.5c1.6-2.5 4.8-4.3 8.2-5.8 6.4-2.7 9.7-2.7 16.5-2.7h32.9c5-0.1 18.3 0.5 23.5 6l0.1 1.7-81.2 0.8z"/>
  <path fill="#6D6E71" d="m35.3 125.4c-0.8 1.2-2.3 4.3-1.9 7.2 0.6 4.1 4.5 7 9.2 8.4 4.4 1.4 8.3 1.7 24.4 2 19 0.3 26.5 0.7 34-1 8.7-1.9 16-6.7 15.8-15.9l-1.9-1.7-79.6 1z"/>
  <path fill="#78787C" d="m41.8 110c-0.9-0.5-1.2-2.8-0.8-3.5l1.5-1.9 55.8-3.5 8.5-2 0.7 0.5-0.3 8.4-0.2 5.4-2.5 2.9h-56.5c-3.5-1.8-5.4-4.8-6.2-6.3z"/>
  <path fill="#848484" d="m53 92.4c-4 1.3-8.3 3.3-10.5 6.6-0.8 1.2-2 4.2-1.5 4.8 0.8 0.7 8.2 3.2 13.1 3.5 3.6 0.1 9.3-4 17.8-4.1 7.7-0.1 15.8 5.9 24.1 6.6 1 0 10.8-0.7 11.5-2.2l-0.5-0.1 0.1-2.5v-3.5l-1.1-3.5-15.5-4-14.5-2-23 0.4z"/>
  <path fill="#727376" d="m79 93.5c0.8 1.1 2 4 3 4.3s9.7 0.8 12.4 1.3c2.1 0.4 4.1 1.4 6.5 1.5 1.6 0 3.9-0.5 4.6-0.3l1.5 0.3 0.4 0.3 0.5-1.2-0.9-2.2-4.6-3.5-7-2.5h-8.9l-7.9 1.6 0.4 0.4z"/>
  <path fill="#78787C" d="m42 110.8c4.7 2.7 12.3 1.1 19.5-0.8 5-1.2 9.9-2.5 14.9-2.2 8 0.6 15.3 4.8 23.6 5 3 0 7.4-0.8 7.4-1.2l-0.5 1.5-1.9 2.7-56.9-0.1-3.5-2.3-2.6-2.6z"/>
  <path fill="#82817D" d="m58 77.6c-5.8 0.9-14 4.8-12.7 9.3 0.4 1.6 1.2 2.1 3.5 3.6s5.2 3.4 17.1 3.6c11.7 0.3 22.5-2.6 28.1-2.7 2.6 0 6-1.3 7.5-3l1-1.3 0.3-0.6v-4l-14.7-4.4-17.5-1.7-12.6 1.2z"/>
  <path fill="#B4ACAA" d="m60.5 78.5c-1.1 0.3-8.6 2.7-8.2 5.6 0.5 2.7 7.8 4.3 20.7 1.9 10-1.9 20-2.9 29.5-2.9 0.3 0 0-1.2-1-1.6-1.9-1.1-2.5-3-2.9-3.4-1-0.7-1.7 0-1.7-1-0.1-0.7-2.9-0.7-2.8-0.7l-9.1-1.4-11.5 0.9-13 2.6z"/>
  <path fill="#8F8B86" d="m60 61.6c-2 0.3-4.1 1.5-6.2 3.2-2.2 1.8-2.8 4-2 7.1 0.3 1.1 1.1 2.7 2.2 3.6 1.6 1.1 3.6 2.1 5.8 2.6 6.8 1.7 13.8 1.9 26.2 0.3 4.5-0.6 10.8-2.4 11.1-4.4 0.3-1.2-0.5-2.2-0.3-4.1-0.3-2.4-3.9-6.3-10.2-7.4-6.2-1-20.1-1.9-26.6-0.9z"/>
  <path fill="#AFAEA9" d="m54.4 75.6c1.7 1.3 3 2.3 6.6 3 6.5 1.3 15.5 1.4 25-0.2 4.9-0.6 10.9-2.4 11.1-4.6 0.5-3-9.7-3.4-16.6-2.2-8 1.4-11 5-23.5 4.3l-2.6-0.3z"/>
  <path fill="#B5B2AB" d="m63 50.5c-3.1 0.4-7.9 4-7.3 6.1l0.9 0.4 28.8-0.4 8.7-4.2-1.9-2.5c-1.2 1-5.6 0.6-6.1 0.1l2.8-2.5c0-0.8-5.5-1.5-7.9-1l-18 4z"/>
  <path fill="#A7A094" d="m55.7 56.9c-0.2 2.1 2.9 4.1 4.4 4.6l4.9 0.5 10.4-2 12.6-3.9 6.6-3-0.2-1-6.3-1.5-9.1 0.8h-12.5l-5.4 0.6-5.4 3.1v1.8z"/>
  <path fill="#948B81" d="m75.8 55.6c6.1-0.4 8.6-1.2 13.1-4.7 2.5 0 3.9-0.4 4.1-0.8 0.9 0.4 1 2.8 1 2.8l-8 3.7-5.1 0.3-5.1-1.3z"/>
  <path fill="#A7A094" d="m56 57c3.6 0 7.6-1 17-1.4s10.4-3.7 7-4.1l-13 2.5-7.4 2-3.6 1z"/>
  <path fill="#7F827F" d="m60 61.5c8.1 2.6 18.6 2.9 26.4 1 2.6-0.9 6.1-2.6 7.4-5.5 0.8-1.5 1.2-3.5 1-5.4l-1 1c-4.9 2.3-8.8 3.9-13.8 3.3-2-0.3-3.6-0.5-6-0.1-3.5 0.3-6.4 3.7-14 5.7"/>
  <path fill="#786F64" d="m61.6 38.8c-2.1 0.3-5.2 1.3-5.3 4.6-0.3 5.6 5.1 7.5 12.8 7 3-0.2 10.5-0.3 16-3.5l2.5-1.8 0.6-1.1 0.3-1.6-5.1-3.8-16.8-0.1-5 0.3z"/>
  <path fill="#A7A094" d="m73.1 49.9c2.9 0.6 5.8 0.1 6.9-1.1l-3.1 0.6-3.8 0.5z"/>
  <path fill="#878683" d="m65.5 27.2c-3.1 0.9-10.1 3.2-10.4 6.2l1 2.1 3.8 2.9 3.7 0.7 17.5-0.3 7.9-1.9 2.4-2.4-1.4-3-5.4-3.6-15.1-1-4 0.3z"/>
  <path fill="#6D6C69" d="m55.1 33.4c0.4 1.6 4 3.2 7.5 3.2 4.5 0 11-2.1 17-2.4 6.5-0.2 10.3 1.4 11.8 0.3 0.2-0.6-0.4-3.6-4.4-5.1l-2.6-1.4c1.6 2 2 2.8-0.4 3.5-5.1 1.5-17.9 1.6-26.1 2.1l-2.8-0.2z"/>
  <path fill="#848380" d="m64.1 19.1c-3.1 1.1-4.1 3-3.4 4.5l3.8 2.4 8.9 2 8.5 0.5 4-0.9 1.7-2 0.5-2.5c-0.2-1.6-2.2-5.1-8.5-5.6l-9.7 0.1-5.8 1.5z"/>
  <path fill="#6D6C69" d="m60.6 23.5" style=""/>
  <path fill="#6D6C69" d="m60.7 23.4c2.3-0.8 6.4-0.3 18.1 1.6 1.6 0.1 7.6-0.6 9.1-1.4 0 3.3-1.9 4.9-8.1 5.2-3.8 0.2-9.2 0-13.7-1.4-1.5-0.5-4.9-1.9-5.4-4z"/>
  <path fill="#6D6C69" d="m71.9 17.5c-0.3 3.5 4.7 1.3 7.1 0.5 2.1-1.1 4.6-3.5 4.6-6.5 0-0.9-1.5-2-2-2l-5.6 4.6-4.1 3.4z"/>
  <path fill="#959492" d="m66 18c-1.9-1.1-3.4-2.1-3.2-4.1l5.7-3.3 9.6-3.5 2.9 0.4v2l-5 5.7-3.1 2.3-3.5 0.4-3.4 0.1z"/>
  <path fill="#737271" d="m62.8 14.1c0.1 1.3 6.2 1.7 11.8-0.7 6.4-2.5 7.3-4.4 6.8-5.8s-1.8-1.3-4.4-0.9c-3.2 0.5-5.9 2.2-10.4 3.9-1.6 0.8-4 2.3-3.8 3.5z"/>
  <path fill="#918F8B" d="m66.5 18c1.4 0.8 3.6 1.4 3.6 0.8l0.4-0.8-1.6-0.4-2.4 0.4z"/>
  <path fill="#82817D" d="m45.4 86c1.1 1 5.1 2.5 14.1 2.5 11.9 0.1 28-0.6 43.1-1.9 0.4 0.4 0 0.9-1.1 2.2s-3.6 2.6-5.9 2.8c-2.9-0.5-7.9 0.9-16.6 2-7.9 0.9-22 1-27-1.5-1.8-0.6-4.5-2.3-5.9-3.6-0.6-1-1-2.1-0.7-2.5z"/>
  <path fill="#656462" d="m34.5 128.1-0.5 0.7 0.9 4.8c2.1 1.4 6.2 1.8 13.1 0.2 7.1-1.8 13.4-5 23.6-5 3.5 0 6.8 1.2 11.8 1.3 5.5 0 12.2 3.8 21.4 4 3.7 0.1 6.6-0.2 9.6-1.6 0.6-0.1 1.6-4.4 1.1-4.5l-0.5 1 0.4-1 0.1-0.4-6.9-2.4-37.2-0.3-35.4 0.5-1.5 2.7z"/>
  <path fill="#78787C" d="m107.1 99c0.9 0.4 1.5 1 1.4 4.9l-0.6 3.7c1.1-0.7-0.5-4.4-1.8-7.8l0.8-1 0.2 0.2z"/>
  <path fill="#727376" d="m106.9 99.1c0.7 0 1.5 1 1.1 2.3 0.9 3 0.4 2 0.6 3.2 0.4 2 0.5 2.3-1.1 3.5l-0.6 2.8 0.7 1.1c2.4-3.2 2.2-10 0.8-11.9l-1.5-2.1v1.1z"/>
  <path fill="#656462" d="m78.8 25c2.3 0.5 8.7-0.4 9.1-1.4 0.1 0.9-1 1-3.3 1.3l-5.8 0.1z"/>
</svg>